<svg xmlns="http://www.w3.org/2000/svg" xmlns:xlink="http://www.w3.org/1999/xlink" width="160" height="160" viewBox="0 0 160 160">
  <defs>
    <clipPath id="clip-path">
      <rect id="Rectángulo_455533" data-name="Rectángulo 455533" width="159.812" height="153.185" fill="#62249e"/>
    </clipPath>
    <clipPath id="clip-path-2">
      <path id="path303" d="M0-682.665H88.79v88.79H0Z" transform="translate(0 682.665)" fill="#fff"/>
    </clipPath>
  </defs>
  <g id="Grupo_1186629" data-name="Grupo 1186629" transform="translate(-383.649 -8398.903)">
    <circle id="Elipse_13674" data-name="Elipse 13674" cx="69" cy="69" r="69" transform="translate(393.649 8410.903)" fill="#62249e"/>
    <g id="Grupo_1179062" data-name="Grupo 1179062" transform="translate(383.649 8398.903)">
      <rect id="Rectángulo_455531" data-name="Rectángulo 455531" width="160" height="160" transform="translate(0 0)" fill="none"/>
      <g id="Grupo_1179061" data-name="Grupo 1179061" transform="translate(0.094 3.9)">
        <path id="Trazado_998445" data-name="Trazado 998445" d="M127.367,99.1H96.727l4.153-7.745h30.64Z" transform="translate(23.418 22.527)" fill="#62249e"/>
        <path id="Trazado_998446" data-name="Trazado 998446" d="M2.518,86.893,0,92.019h33.78L36.3,86.893Z" transform="translate(0 21.46)" fill="#62249e"/>
        <path id="Trazado_998447" data-name="Trazado 998447" d="M131.16,33.711H98.809l2.537-5.745H133.7Z" transform="translate(23.977 6.905)" fill="#62249e"/>
        <path id="Trazado_998448" data-name="Trazado 998448" d="M45.981,13.965H3.483L6.02,8.221h42.5Z" transform="translate(0.935 2.207)" fill="#62249e"/>
        <g id="Grupo_1179060" data-name="Grupo 1179060" transform="translate(0)">
          <g id="Grupo_1179059" data-name="Grupo 1179059" clip-path="url(#clip-path)">
            <path id="Trazado_998449" data-name="Trazado 998449" d="M79.257,132.183A67.757,67.757,0,0,1,13.15,49.237H4.12a76.641,76.641,0,0,0,134.831,63.179H127.129a67.636,67.636,0,0,1-47.872,19.767" transform="translate(0.649 12.195)" fill="#62249e"/>
            <path id="Trazado_998450" data-name="Trazado 998450" d="M110.835,89.888h10.029c.805-1.6,1.537-3.245,2.231-4.908h-9.642c-.81,1.674-1.678,3.314-2.618,4.908" transform="translate(27.546 21.048)" fill="#62249e"/>
            <path id="Trazado_998451" data-name="Trazado 998451" d="M155.215,76.593A76.663,76.663,0,0,0,5.373,53.814h9.3A67.827,67.827,0,1,1,141.5,101.872h9.4a76.209,76.209,0,0,0,4.315-25.279" transform="translate(1.335)" fill="#62249e"/>
            <path id="Trazado_998452" data-name="Trazado 998452" d="M108.562,81.649v4.156h5.456q.989-2.042,1.842-4.156Z" transform="translate(26.981 20.223)" fill="#62249e"/>
            <path id="Trazado_998453" data-name="Trazado 998453" d="M129.825,81.649h-7.576q-.74,2.107-1.594,4.156h9.17Z" transform="translate(29.986 20.223)" fill="#62249e"/>
          </g>
        </g>
        <path id="Trazado_998444" data-name="Trazado 998444" d="M3.8,37.025,0,44.77H23l3.805-7.745Z" transform="translate(0 9.13)" fill="#62249e"/>
      </g>
    </g>
    <g id="Grupo_1177669" data-name="Grupo 1177669" transform="translate(416.649 8431.903)">
      <g id="Grupo_1099618" data-name="Grupo 1099618" transform="translate(0 0)">
        <rect id="Rectángulo_401104" data-name="Rectángulo 401104" width="93.646" height="94.775" transform="translate(0)" fill="none"/>
      </g>
      <g id="Grupo_1186634" data-name="Grupo 1186634" transform="translate(-7616.711 7770.761)">
        <g id="g297" transform="translate(7623.711 -7767.761)">
          <g id="g299" transform="translate(0 0)">
            <g id="g301" clip-path="url(#clip-path-2)">
              <g id="g307" transform="translate(0 0)">
                <path id="path309" d="M-34.8-13.333H20.7a5.208,5.208,0,0,1,5.2,5.2V5.743a5.208,5.208,0,0,1-5.2,5.2H-34.8a5.208,5.208,0,0,1-5.2-5.2V-8.131A5.208,5.208,0,0,1-34.8-13.333ZM20.7,7.477a1.736,1.736,0,0,0,1.734-1.734V-8.131A1.736,1.736,0,0,0,20.7-9.865H-34.8a1.736,1.736,0,0,0-1.734,1.734V5.743A1.736,1.736,0,0,0-34.8,7.477Z" transform="translate(40 13.333)" fill="#fff"/>
              </g>
              <g id="g311" transform="translate(6.936 13.873)">
                <path id="path313" d="M36.958-9.865H-11.6A1.734,1.734,0,0,1-13.333-11.6,1.734,1.734,0,0,1-11.6-13.333H36.958A1.734,1.734,0,0,1,38.692-11.6,1.734,1.734,0,0,1,36.958-9.865Z" transform="translate(13.333 13.333)" fill="#fff"/>
              </g>
              <g id="g315" transform="translate(8.671 8.671)">
                <path id="path317" fill="#fff"/>
              </g>
              <g id="g319" transform="translate(16.474 8.671)">
                <path id="path321" fill="#fff"/>
              </g>
              <g id="g323" transform="translate(24.278 8.671)">
                <path id="path325" fill="#fff"/>
              </g>
              <g id="g327" transform="translate(0 27.747)">
                <path id="path329" d="M-34.8-13.333H20.7a5.208,5.208,0,0,1,5.2,5.2V5.743a5.208,5.208,0,0,1-5.2,5.2H-34.8a5.208,5.208,0,0,1-5.2-5.2V-8.131A5.208,5.208,0,0,1-34.8-13.333ZM20.7,7.477a1.736,1.736,0,0,0,1.734-1.734V-8.131A1.736,1.736,0,0,0,20.7-9.865H-34.8a1.736,1.736,0,0,0-1.734,1.734V5.743A1.736,1.736,0,0,0-34.8,7.477Z" transform="translate(40 13.333)" fill="#fff"/>
              </g>
              <g id="g331" transform="translate(6.936 41.62)">
                <path id="path333" d="M36.958-9.865H-11.6A1.734,1.734,0,0,1-13.333-11.6,1.734,1.734,0,0,1-11.6-13.333H36.958A1.734,1.734,0,0,1,38.692-11.6,1.734,1.734,0,0,1,36.958-9.865Z" transform="translate(13.333 13.333)" fill="#fff"/>
              </g>
              <g id="g335" transform="translate(8.671 36.417)">
                <path id="path337" fill="#fff"/>
              </g>
              <g id="g339" transform="translate(16.474 36.417)">
                <path id="path341" fill="#fff"/>
              </g>
              <g id="g343" transform="translate(24.278 36.417)">
                <path id="path345" fill="#fff"/>
              </g>
              <g id="g347" transform="translate(0 55.494)">
                <path id="path349" d="M-354.66-149.054h-47.823a5.208,5.208,0,0,1-5.2-5.2V-168.13a5.208,5.208,0,0,1,5.2-5.2h49.512a1.734,1.734,0,0,1,1.734,1.734,1.734,1.734,0,0,1-1.734,1.734h-49.512a1.736,1.736,0,0,0-1.734,1.734v13.873a1.736,1.736,0,0,0,1.734,1.734h47.823a1.734,1.734,0,0,1,1.734,1.734A1.734,1.734,0,0,1-354.66-149.054Z" transform="translate(407.686 173.333)" fill="#fff"/>
              </g>
              <g id="g351" transform="translate(6.936 69.367)">
                <path id="path353" d="M30.42-9.865H-11.6A1.734,1.734,0,0,1-13.333-11.6,1.734,1.734,0,0,1-11.6-13.333H30.42A1.734,1.734,0,0,1,32.154-11.6,1.734,1.734,0,0,1,30.42-9.865Z" transform="translate(13.333 13.333)" fill="#fff"/>
              </g>
              <g id="g355" transform="translate(8.671 64.164)">
                <path id="path357" fill="#fff"/>
              </g>
              <g id="g359" transform="translate(16.474 64.164)">
                <path id="path361" fill="#fff"/>
              </g>
              <g id="g363" transform="translate(24.278 64.164)">
                <path id="path365" fill="#fff"/>
              </g>
              <g id="g367" transform="translate(3.468 20.81)">
                <path id="path369" d="M-11.6-2.928a1.734,1.734,0,0,1-1.734-1.734V-11.6A1.734,1.734,0,0,1-11.6-13.333,1.734,1.734,0,0,1-9.865-11.6v6.937A1.734,1.734,0,0,1-11.6-2.928Z" transform="translate(13.333 13.333)" fill="#fff"/>
              </g>
              <g id="g371" transform="translate(58.962 20.81)">
                <path id="path373" d="M-11.6-2.928a1.734,1.734,0,0,1-1.734-1.734V-11.6A1.734,1.734,0,0,1-11.6-13.333,1.734,1.734,0,0,1-9.865-11.6v6.937A1.734,1.734,0,0,1-11.6-2.928Z" transform="translate(13.333 13.333)" fill="#fff"/>
              </g>
              <g id="g375" transform="translate(3.468 48.557)">
                <path id="path377" d="M-11.6-2.928a1.734,1.734,0,0,1-1.734-1.734V-11.6A1.734,1.734,0,0,1-11.6-13.333,1.734,1.734,0,0,1-9.865-11.6v6.937A1.734,1.734,0,0,1-11.6-2.928Z" transform="translate(13.333 13.333)" fill="#fff"/>
              </g>
              <g id="g379" transform="translate(58.962 48.557)">
                <path id="path381" d="M-11.6-7.691a1.734,1.734,0,0,1-1.734-1.734V-11.6A1.734,1.734,0,0,1-11.6-13.333,1.734,1.734,0,0,1-9.865-11.6v2.173A1.734,1.734,0,0,1-11.6-7.691Z" transform="translate(13.333 13.333)" fill="#fff"/>
              </g>
              <g id="g383" transform="translate(48.904 48.904)">
                <path id="path385" d="M-133.39-253.446a19.966,19.966,0,0,1-19.943-19.943,19.966,19.966,0,0,1,19.943-19.943,19.966,19.966,0,0,1,19.943,19.943A19.966,19.966,0,0,1-133.39-253.446Zm0-36.418a16.493,16.493,0,0,0-16.475,16.475,16.493,16.493,0,0,0,16.475,16.475,16.493,16.493,0,0,0,16.475-16.475A16.493,16.493,0,0,0-133.39-289.864Z" transform="translate(153.333 293.333)" fill="#fff"/>
              </g>
            </g>
          </g>
        </g>
        <path id="flecha-izquierda_1_" data-name="flecha-izquierda (1)" d="M16.669,7.245a1.666,1.666,0,0,1,0,2.356l-4.224,4.224H22.559a1.666,1.666,0,1,1,0,3.332H12.445l4.224,4.224a1.666,1.666,0,1,1-2.356,2.356L7.245,16.669a1.666,1.666,0,0,1,0-2.356l7.068-7.068A1.666,1.666,0,0,1,16.669,7.245Z" transform="translate(7676.892 -7714.735)" fill="#fff" fill-rule="evenodd"/>
      </g>
    </g>
  </g>
</svg>
