<svg xmlns="http://www.w3.org/2000/svg" xmlns:xlink="http://www.w3.org/1999/xlink" width="133.347" height="133.346" viewBox="0 0 133.347 133.346">
  <defs>
    <clipPath id="clip-path">
      <rect id="Rectángulo_455533" data-name="Rectángulo 455533" width="133.346" height="127.904" fill="#19538d"/>
    </clipPath>
  </defs>
  <g id="Grupo_1180139" data-name="Grupo 1180139" transform="translate(0.295 -0.228)">
    <ellipse id="Elipse_13674" data-name="Elipse 13674" cx="56.894" cy="56.894" rx="56.894" ry="56.894" transform="translate(9.483 10.006)" fill="#fff"/>
    <g id="Grupo_1179062" data-name="Grupo 1179062" transform="translate(-0.295 0.228)">
      <rect id="Rectángulo_455531" data-name="Rectángulo 455531" width="133.346" height="133.346" transform="translate(0 0)" fill="none"/>
      <g id="Grupo_1179061" data-name="Grupo 1179061" transform="translate(0 3.126)">
        <path id="Trazado_998445" data-name="Trazado 998445" d="M121.892,97.715H96.727l3.411-6.361H125.3Z" transform="translate(4.04 3.816)" fill="#62249e"/>
        <path id="Trazado_998446" data-name="Trazado 998446" d="M2.068,86.893,0,91.1H27.745l2.069-4.21Z" transform="translate(0 3.629)" fill="#19538d"/>
        <path id="Trazado_998447" data-name="Trazado 998447" d="M125.38,32.685H98.809l2.084-4.718h26.57Z" transform="translate(4.127 1.168)" fill="#19538d"/>
        <path id="Trazado_998448" data-name="Trazado 998448" d="M38.387,12.939H3.483L5.567,8.221h34.9Z" transform="translate(0.146 0.343)" fill="#19538d"/>
        <g id="Grupo_1179060" data-name="Grupo 1179060" transform="translate(0)">
          <g id="Grupo_1179059" data-name="Grupo 1179059" clip-path="url(#clip-path)">
            <path id="Trazado_998449" data-name="Trazado 998449" d="M66.564,118.494A56.579,56.579,0,0,1,11.4,49.237H3.87a63.948,63.948,0,0,0,112.5,52.752h-9.865a56.416,56.416,0,0,1-39.945,16.5" transform="translate(0.109 2.057)" fill="#19538d"/>
            <path id="Trazado_998450" data-name="Trazado 998450" d="M110.835,89.078H119.2c.672-1.338,1.282-2.71,1.862-4.1H113.02c-.676,1.4-1.4,2.767-2.185,4.1" transform="translate(4.629 3.549)" fill="#19538d"/>
            <path id="Trazado_998451" data-name="Trazado 998451" d="M130.4,63.952A63.962,63.962,0,0,0,5.373,44.932h7.763A56.6,56.6,0,1,1,118.96,85.059h7.84a63.67,63.67,0,0,0,3.6-21.107" transform="translate(0.224)" fill="#19538d"/>
            <path id="Trazado_998452" data-name="Trazado 998452" d="M108.562,81.649v3.47h4.553q.825-1.7,1.537-3.47Z" transform="translate(4.534 3.41)" fill="#19538d"/>
            <path id="Trazado_998453" data-name="Trazado 998453" d="M128.307,81.649h-6.321q-.617,1.76-1.33,3.47h7.652Z" transform="translate(5.04 3.41)" fill="#19538d"/>
          </g>
        </g>
        <path id="Trazado_998444" data-name="Trazado 998444" d="M3.125,37.025,0,43.386H18.891l3.125-6.361Z" transform="translate(0 1.546)" fill="#62249e"/>
      </g>
    </g>
    <g id="Grupo_1177669" data-name="Grupo 1177669" transform="translate(30.818 30.451)">
      <g id="Grupo_1099618" data-name="Grupo 1099618" transform="translate(0 0)">
        <rect id="Rectángulo_401104" data-name="Rectángulo 401104" width="71.028" height="71.883" transform="translate(0)" fill="none"/>
      </g>
      <g id="editar-tabla" transform="translate(2.627 -54.009)">
        <g id="Grupo_1185630" data-name="Grupo 1185630" transform="translate(6.073 68.905)">
          <g id="Grupo_1185629" data-name="Grupo 1185629" transform="translate(0 0)">
            <path id="Trazado_1031363" data-name="Trazado 1031363" d="M87.828,98.125H46.559a2.077,2.077,0,0,0-2.075,2.074v9.219a2.077,2.077,0,0,0,2.075,2.075H76.438a1.083,1.083,0,1,0,0-2.165H46.65V100.29H87.737v9.037H80.766a1.083,1.083,0,1,0,0,2.165h7.062a2.077,2.077,0,0,0,2.075-2.075V100.2A2.077,2.077,0,0,0,87.828,98.125Z" transform="translate(-44.484 -98.125)" fill="#19538d"/>
          </g>
        </g>
        <g id="Grupo_1185632" data-name="Grupo 1185632" transform="translate(6.073 85.094)">
          <g id="Grupo_1185631" data-name="Grupo 1185631">
            <path id="Trazado_1031364" data-name="Trazado 1031364" d="M63.768,216.711h-18.2a1.083,1.083,0,0,0-1.083,1.083v8.562a1.083,1.083,0,0,0,1.083,1.083h18.2a1.083,1.083,0,0,0,1.083-1.083v-8.562h0A1.083,1.083,0,0,0,63.768,216.711ZM46.65,225.273v-6.4H62.685v6.4Z" transform="translate(-44.485 -216.711)" fill="#19538d"/>
          </g>
        </g>
        <g id="Grupo_1185634" data-name="Grupo 1185634" transform="translate(6.073 99.617)">
          <g id="Grupo_1185633" data-name="Grupo 1185633" transform="translate(0 0)">
            <path id="Trazado_1031365" data-name="Trazado 1031365" d="M63.768,323.09h-18.2a1.083,1.083,0,0,0-1.083,1.083v8.562a1.083,1.083,0,0,0,1.083,1.083h10a1.083,1.083,0,0,0,0-2.166H46.65v-6.4H62.685v6.4H59.9a1.083,1.083,0,0,0,0,2.166h3.869a1.083,1.083,0,0,0,1.083-1.083v-8.562A1.083,1.083,0,0,0,63.768,323.09Z" transform="translate(-44.485 -323.09)" fill="#19538d"/>
          </g>
        </g>
        <g id="Grupo_1185636" data-name="Grupo 1185636" transform="translate(0 64.285)">
          <g id="Grupo_1185635" data-name="Grupo 1185635" transform="translate(0 0)">
            <path id="Trazado_1031366" data-name="Trazado 1031366" d="M68.737,86.376l-5.8-5.8a3.967,3.967,0,0,0-5.609,0l-.649.649V70.691a6.413,6.413,0,0,0-6.405-6.405H15.929a1.083,1.083,0,1,0,0,2.165H50.276a4.245,4.245,0,0,1,4.24,4.24v12.7l-.407.407L50.5,87.409V86.177a1.083,1.083,0,0,0-1.083-1.083h-18.2a1.083,1.083,0,0,0-1.083,1.083v8.562a1.083,1.083,0,0,0,1.083,1.083h10.87l-3.8,3.8H31.217a1.083,1.083,0,0,0-1.083,1.083v8.562a1.083,1.083,0,0,0,1.083,1.083h4.964l-.055,1.728a1.083,1.083,0,0,0,1.082,1.117h.034l10.2-.322.018,0a1.1,1.1,0,0,0,.128-.014l.017,0a1.064,1.064,0,0,0,.137-.035l.027-.009a1.069,1.069,0,0,0,.12-.05l.012-.006a1.031,1.031,0,0,0,.121-.073l.023-.017a1.1,1.1,0,0,0,.089-.072l.025-.023.015-.013,6.344-6.344v4.019a4.245,4.245,0,0,1-4.24,4.24H6.406a4.245,4.245,0,0,1-4.24-4.24V70.69a4.245,4.245,0,0,1,4.24-4.24H11.6a1.083,1.083,0,1,0,0-2.165H6.406A6.413,6.413,0,0,0,0,70.691v39.535a6.413,6.413,0,0,0,6.406,6.405h43.87a6.413,6.413,0,0,0,6.405-6.405v-6.184l4.671-4.671,4.164-4.164,3.221-3.221a3.966,3.966,0,0,0,0-5.609ZM36.454,101.792c0,.013,0,.025,0,.038s0,.029,0,.045l-.2,6.3H32.3v-6.4h4.156S36.455,101.789,36.454,101.792ZM32.3,93.656v-6.4H48.334v2.315l-4.082,4.082Zm6.028,17.332.207-6.545,6.338,6.338Zm16.506-8.162h0l-7.427,7.427-8.344-8.344.444-.444h0l5.959-5.959h0l4.716-4.716h0l.528-.528L59.055,98.6Zm5.753-5.753-8.344-8.344L54.874,86.1l8.344,8.344Zm6.619-6.619L64.75,92.91l-8.344-8.344,2.455-2.455a1.8,1.8,0,0,1,2.547,0l5.8,5.8a1.8,1.8,0,0,1,0,2.547Z" transform="translate(0 -64.285)" fill="#19538d"/>
          </g>
        </g>
      </g>
    </g>
  </g>
</svg>
