<svg xmlns="http://www.w3.org/2000/svg" width="110" height="109" viewBox="0 0 110 109">
  <g id="Grupo_1186642" data-name="Grupo 1186642" transform="translate(-901 -5302)">
    <ellipse id="Elipse_13688" data-name="Elipse 13688" cx="55" cy="54.5" rx="55" ry="54.5" transform="translate(901 5302)" fill="#fff"/>
    <g id="rendimiento" transform="translate(928.001 5328.001)">
      <path id="Trazado_1031372" data-name="Trazado 1031372" d="M52.742,1.851H36.223a20.283,20.283,0,0,0-16.933,0H2.776A2.716,2.716,0,0,0,0,4.626v38.7a2.868,2.868,0,0,0,2.776,2.942H18.859l-1.851,3.7H13.879a2.776,2.776,0,0,0,0,5.552H41.638a2.776,2.776,0,0,0,0-5.552H38.509l-1.851-3.7H52.742a2.868,2.868,0,0,0,2.776-2.942V4.626a2.716,2.716,0,0,0-2.776-2.776Zm0,1.851a.877.877,0,0,1,.925.925V38.862H36.223A20.337,20.337,0,0,0,39.442,3.7ZM46.265,20.356A18.506,18.506,0,1,1,27.759,1.851,18.506,18.506,0,0,1,46.265,20.356ZM2.776,3.7h13.3a20.337,20.337,0,0,0,3.218,35.161H1.851V4.626A.877.877,0,0,1,2.776,3.7ZM42.563,52.742a.925.925,0,0,1-.925.925H13.879a.925.925,0,0,1,0-1.851H41.638A.925.925,0,0,1,42.563,52.742ZM36.44,49.966H19.078l1.851-3.7H34.589Zm16.3-5.552H2.776a1.033,1.033,0,0,1-.925-1.092V40.713H53.667v2.609A1.033,1.033,0,0,1,52.742,44.414Z" transform="translate(0)" fill="#12263f"/>
      <path id="Trazado_1031373" data-name="Trazado 1031373" d="M15.424,30.751a2.793,2.793,0,0,0,2.036,1.084c.06,0,.118.006.178.006a2.776,2.776,0,0,0,1.963-.814l1.269-1.268a2.836,2.836,0,0,0,.324-3.643A9.238,9.238,0,0,1,26.25,11.73a61.1,61.1,0,0,0-1.3,8.916,3.7,3.7,0,1,0,7.4,0,61.1,61.1,0,0,0-1.3-8.916,9.242,9.242,0,0,1,5.063,14.385,2.833,2.833,0,0,0,.325,3.642l1.267,1.268a2.781,2.781,0,0,0,4.175-.278,16.642,16.642,0,1,0-26.467,0Zm4.269-3.545a.972.972,0,0,1-.138,1.244l-1.269,1.268a.881.881,0,0,1-.713.27.925.925,0,0,1-.682-.365,14.717,14.717,0,0,1,.685-18.74l2.607,2.607a11.087,11.087,0,0,0-.49,13.716Zm8.962-4.7a1.857,1.857,0,0,1-1.851-1.86A74.136,74.136,0,0,1,28.563,9.627c.009-.043.016-.075.093-.075s.08.031.093.075a74.135,74.135,0,0,1,1.758,11.019A1.857,1.857,0,0,1,28.655,22.506Zm11.768,7.115a.925.925,0,0,1-.684.37.886.886,0,0,1-.714-.27l-1.268-1.268a.972.972,0,0,1-.139-1.243,11.086,11.086,0,0,0-.489-13.717l2.608-2.607a14.72,14.72,0,0,1,.686,18.738ZM38.429,9.574l-2.6,2.6a11.09,11.09,0,0,0-5.165-2.43c-.034-.167-.069-.336-.1-.5a1.943,1.943,0,0,0-3.8,0c-.033.163-.068.331-.1.5a11.093,11.093,0,0,0-5.165,2.43l-2.6-2.6a14.689,14.689,0,0,1,19.547,0Z" transform="translate(-0.897 -0.299)" fill="#12263f"/>
      <path id="Trazado_1031374" data-name="Trazado 1031374" d="M34.029,30H31.253a.925.925,0,1,0,0,1.851H31.8L29.4,34.243l-2.122-2.122a.925.925,0,0,0-1.308,0l-3.7,3.7a.925.925,0,1,0,1.308,1.308l3.047-3.047,2.122,2.122a.925.925,0,0,0,1.308,0L33.1,33.159V33.7a.925.925,0,0,0,1.851,0V30.925A.925.925,0,0,0,34.029,30Z" transform="translate(-1.644 -2.241)" fill="#12263f"/>
    </g>
  </g>
</svg>
