<svg xmlns="http://www.w3.org/2000/svg" width="98" height="98" viewBox="0 0 98 98">
  <g id="Grupo_1186578" data-name="Grupo 1186578" transform="translate(-1214 -3348)">
    <g id="Grupo_1186575" data-name="Grupo 1186575" transform="translate(924.391 -8263.898)">
      <g id="Grupo_1177473" data-name="Grupo 1177473" transform="translate(289.609 11611.898)">
        <ellipse id="Elipse_13609" data-name="Elipse 13609" cx="49" cy="49" rx="49" ry="49" transform="translate(0)" fill="#19538d"/>
      </g>
    </g>
    <path id="Trazado_1032953" data-name="Trazado 1032953" d="M3.845-39.749H17.407q8.688,0,13.986,5.479t5.3,14.44q0,8.991-5.464,14.41T16.681,0H3.845Zm8.628,7.508V-7.689h3.391a12.92,12.92,0,0,0,8.658-2.876q3.391-2.876,3.391-9.6a14.271,14.271,0,0,0-1.635-6.917,8.37,8.37,0,0,0-4.738-4.087,18.081,18.081,0,0,0-5.918-1.075Z" transform="translate(1243.155 3416.749)" fill="#fff"/>
  </g>
</svg>
