<svg xmlns="http://www.w3.org/2000/svg" width="110" height="109" viewBox="0 0 110 109">
  <g id="Grupo_1186644" data-name="Grupo 1186644" transform="translate(-1213 -5302)">
    <g id="Grupo_1186643" data-name="Grupo 1186643">
      <ellipse id="Elipse_13688" data-name="Elipse 13688" cx="55" cy="54.5" rx="55" ry="54.5" transform="translate(1213 5302)" fill="#fff"/>
      <g id="actualizando_1_" data-name="actualizando (1)" transform="translate(1244.45 5332.44)">
        <g id="Page-1_10_" transform="translate(-4.45 -4.44)">
          <g id="_x30_11---Computer-Updating">
            <path id="Shape_27_" d="M54.411.01H3.812A2.9,2.9,0,0,0,1,2.992V43.879A2.9,2.9,0,0,0,3.812,46.86H20.1l-1.874,3.748H15.056a2.811,2.811,0,1,0,0,5.622h28.11a2.811,2.811,0,1,0,0-5.622H40L38.124,46.86H54.411a2.9,2.9,0,0,0,2.811-2.982V2.992A2.9,2.9,0,0,0,54.411.01ZM3.812,1.884h50.6a1.047,1.047,0,0,1,.937,1.107V39.364H2.875V2.992a1.047,1.047,0,0,1,.937-1.108ZM44.1,53.419a.937.937,0,0,1-.937.937H15.056a.937.937,0,1,1,0-1.874h28.11A.937.937,0,0,1,44.1,53.419Zm-6.2-2.811H20.32l1.874-3.748H36.028Zm16.508-5.622H3.812a1.047,1.047,0,0,1-.937-1.107v-2.64H55.348v2.64a1.047,1.047,0,0,1-.937,1.107Z" transform="translate(-1 -0.01)" fill="#12263f"/>
            <path id="Shape_26_" d="M211.379,105.12A5.622,5.622,0,1,0,205.75,99.5,5.622,5.622,0,0,0,211.379,105.12Zm0-9.37a3.748,3.748,0,1,1-3.754,3.748A3.748,3.748,0,0,1,211.379,95.75Z" transform="translate(-183.267 -83.569)" fill="#12263f"/>
            <path id="Shape_25_" d="M156.116,50.978a1.874,1.874,0,0,0-1.507,1.837v2.211a1.874,1.874,0,0,0,1.506,1.837l.9.18a9.334,9.334,0,0,0,.379.92l-.507.761a1.882,1.882,0,0,0,.234,2.365l1.565,1.564a1.883,1.883,0,0,0,2.364.234l.767-.512a9.484,9.484,0,0,0,.912.375l.182.907a1.874,1.874,0,0,0,1.838,1.507h2.211a1.874,1.874,0,0,0,1.837-1.506l.182-.908a9.51,9.51,0,0,0,.912-.375l.767.512a1.881,1.881,0,0,0,2.365-.234l1.564-1.565a1.881,1.881,0,0,0,.234-2.364l-.507-.761a9.326,9.326,0,0,0,.375-.92l.9-.18a1.874,1.874,0,0,0,1.511-1.837V52.815a1.874,1.874,0,0,0-1.506-1.837l-.9-.18a9.351,9.351,0,0,0-.381-.92l.508-.761a1.881,1.881,0,0,0-.234-2.365l-1.565-1.564a1.88,1.88,0,0,0-2.364-.234l-.767.512a9.485,9.485,0,0,0-.912-.375l-.182-.907a1.874,1.874,0,0,0-1.837-1.507h-2.211a1.874,1.874,0,0,0-1.837,1.506l-.182.908a9.512,9.512,0,0,0-.912.375l-.767-.512a1.881,1.881,0,0,0-2.365.234l-1.564,1.565a1.881,1.881,0,0,0-.234,2.364l.508.761a9.355,9.355,0,0,0-.381.92Zm1.806,1.55a.937.937,0,0,0,.717-.662,7.469,7.469,0,0,1,.656-1.593.937.937,0,0,0-.038-.978l-.813-1.218,1.565-1.564,1.225.817a.931.931,0,0,0,.975.039,7.464,7.464,0,0,1,1.585-.651.937.937,0,0,0,.662-.718l.293-1.45h2.211l.29,1.45a.937.937,0,0,0,.662.718,7.448,7.448,0,0,1,1.585.651.932.932,0,0,0,.975-.039l1.226-.817,1.564,1.564-.813,1.218a.937.937,0,0,0-.036.98,7.462,7.462,0,0,1,.656,1.593.937.937,0,0,0,.717.662l1.438.286v2.211l-1.439.288a.937.937,0,0,0-.717.662,7.371,7.371,0,0,1-.656,1.593.937.937,0,0,0,.038.978l.813,1.218L171.7,61.329l-1.225-.817a.937.937,0,0,0-.975-.039,7.511,7.511,0,0,1-1.585.656.937.937,0,0,0-.662.717l-.292,1.446h-2.211l-.29-1.45a.937.937,0,0,0-.662-.717,7.508,7.508,0,0,1-1.585-.656.937.937,0,0,0-.975.039l-1.226.817-1.564-1.565.813-1.218a.937.937,0,0,0,.036-.975,7.364,7.364,0,0,1-.656-1.593.937.937,0,0,0-.717-.662l-1.438-.286V52.815Z" transform="translate(-137.742 -37.992)" fill="#12263f"/>
            <path id="Shape_24_" d="M46.487,287.232H87.715a2.811,2.811,0,1,0,0-5.622H46.487a2.811,2.811,0,1,0,0,5.622Zm42.165-2.811a.937.937,0,0,1-.937.937H75.534v-1.874H87.715a.937.937,0,0,1,.937.937Zm-42.165-.937H73.66v1.874H46.487a.937.937,0,0,1,0-1.874Z" transform="translate(-38.99 -250.689)" fill="#12263f"/>
            <g id="Grupo_1185642" data-name="Grupo 1185642" transform="translate(9.383 3.747)">
              <path id="Path_14_" d="M355.473,122.99l.255-.255a14.845,14.845,0,0,1-4.367,10.173.938.938,0,0,0,1.325,1.327A16.714,16.714,0,0,0,357.6,122.7l.292.292a.937.937,0,0,0,1.325-1.325l-1.874-1.874a.937.937,0,0,0-1.325,0l-1.874,1.874A.937.937,0,0,0,355.472,123v0Z" transform="translate(-322.027 -110.146)" fill="#12263f" fill-rule="evenodd"/>
              <path id="Path_13_" d="M88.586,48.856a.937.937,0,0,0,1.325,0l1.874-1.874a.937.937,0,0,0-1.325-1.325l-.255.255a14.845,14.845,0,0,1,4.367-10.173.938.938,0,0,0-1.325-1.327A16.714,16.714,0,0,0,88.33,45.949l-.292-.292a.937.937,0,0,0-1.325,1.325Z" transform="translate(-86.449 -34.138)" fill="#12263f" fill-rule="evenodd"/>
            </g>
          </g>
        </g>
      </g>
    </g>
  </g>
</svg>
