<svg xmlns="http://www.w3.org/2000/svg" width="110" height="109" viewBox="0 0 110 109">
  <g id="Grupo_1186640" data-name="Grupo 1186640" transform="translate(-277 -5302)">
    <ellipse id="Elipse_13688" data-name="Elipse 13688" cx="55" cy="54.5" rx="55" ry="54.5" transform="translate(277 5302)" fill="#fff"/>
    <g id="actualizando_1_" data-name="actualizando (1)" transform="translate(305 5328.485)">
      <g id="Grupo_1186639" data-name="Grupo 1186639">
        <g id="Page-1_10_" transform="translate(0 0.01)">
          <g id="_x30_11---Computer-Updating">
            <path id="Shape_27_" d="M52.968.01H3.736A2.826,2.826,0,0,0,1,2.911V42.694a2.826,2.826,0,0,0,2.735,2.9H19.583L17.76,49.242H14.677a2.735,2.735,0,1,0,0,5.47H42.028a2.735,2.735,0,1,0,0-5.47H38.944l-1.823-3.647H52.968a2.826,2.826,0,0,0,2.735-2.9V2.911A2.826,2.826,0,0,0,52.968.01ZM3.736,1.833H52.968a1.018,1.018,0,0,1,.912,1.078V38.3H2.825V2.911a1.019,1.019,0,0,1,.912-1.078Zm39.2,50.143a.912.912,0,0,1-.912.912H14.677a.912.912,0,1,1,0-1.823H42.028A.912.912,0,0,1,42.939,51.977Zm-6.034-2.735H19.8l1.823-3.647h13.46Zm16.062-5.47H3.736a1.018,1.018,0,0,1-.912-1.078V40.125H53.88v2.569a1.019,1.019,0,0,1-.912,1.078Z" transform="translate(-1 -0.01)" fill="#12263f"/>
            <path id="Shape_26_" d="M211.227,104.816a5.47,5.47,0,1,0-5.477-5.47A5.47,5.47,0,0,0,211.227,104.816Zm0-9.117a3.647,3.647,0,1,1-3.653,3.647A3.647,3.647,0,0,1,211.227,95.7Z" transform="translate(-183.875 -83.847)" fill="#12263f"/>
            <path id="Shape_25_" d="M156.075,50.754a1.823,1.823,0,0,0-1.466,1.788v2.152a1.823,1.823,0,0,0,1.465,1.788l.874.175a9.082,9.082,0,0,0,.369.9l-.493.74a1.831,1.831,0,0,0,.228,2.3l1.523,1.522a1.832,1.832,0,0,0,2.3.228l.747-.5a9.233,9.233,0,0,0,.887.365l.177.882a1.823,1.823,0,0,0,1.788,1.466h2.152a1.823,1.823,0,0,0,1.788-1.465l.177-.883a9.254,9.254,0,0,0,.887-.365l.747.5a1.831,1.831,0,0,0,2.3-.228l1.522-1.523a1.83,1.83,0,0,0,.228-2.3l-.493-.74a9.078,9.078,0,0,0,.365-.9l.873-.175a1.823,1.823,0,0,0,1.471-1.788V52.541a1.823,1.823,0,0,0-1.465-1.788l-.873-.175a9.11,9.11,0,0,0-.371-.9l.494-.74a1.831,1.831,0,0,0-.228-2.3l-1.522-1.521a1.829,1.829,0,0,0-2.3-.228l-.747.5a9.226,9.226,0,0,0-.887-.365l-.177-.882a1.823,1.823,0,0,0-1.788-1.466h-2.152a1.823,1.823,0,0,0-1.788,1.465l-.177.883a9.255,9.255,0,0,0-.887.365l-.747-.5a1.83,1.83,0,0,0-2.3.228l-1.522,1.523a1.83,1.83,0,0,0-.228,2.3l.494.74a9.1,9.1,0,0,0-.371.9Zm1.757,1.508a.912.912,0,0,0,.7-.644,7.266,7.266,0,0,1,.638-1.55.912.912,0,0,0-.037-.952l-.791-1.185,1.523-1.522,1.192.795a.906.906,0,0,0,.948.038,7.263,7.263,0,0,1,1.543-.634.912.912,0,0,0,.645-.7l.285-1.41h2.152l.283,1.41a.912.912,0,0,0,.645.7,7.247,7.247,0,0,1,1.543.634.906.906,0,0,0,.948-.038l1.193-.795,1.522,1.522-.791,1.185a.912.912,0,0,0-.035.954,7.261,7.261,0,0,1,.638,1.55.912.912,0,0,0,.7.644l1.4.278v2.152l-1.4.28a.912.912,0,0,0-.7.644,7.171,7.171,0,0,1-.638,1.55.912.912,0,0,0,.037.952l.791,1.185-1.523,1.522-1.192-.795a.912.912,0,0,0-.948-.038,7.309,7.309,0,0,1-1.543.638.912.912,0,0,0-.645.7l-.284,1.407h-2.152l-.283-1.41a.912.912,0,0,0-.645-.7A7.305,7.305,0,0,1,162,59.988a.912.912,0,0,0-.948.038l-1.193.795L158.342,59.3l.791-1.185a.912.912,0,0,0,.035-.949,7.164,7.164,0,0,1-.638-1.55.912.912,0,0,0-.7-.644l-1.4-.278V52.541Z" transform="translate(-138.198 -38.118)" fill="#12263f"/>
            <path id="Shape_24_" d="M46.411,287.08H86.526a2.735,2.735,0,1,0,0-5.47H46.411a2.735,2.735,0,1,0,0,5.47Zm41.026-2.735a.912.912,0,0,1-.912.912H74.674v-1.823H86.526a.912.912,0,0,1,.912.912Zm-41.026-.912H72.85v1.823H46.411a.912.912,0,0,1,0-1.823Z" transform="translate(-39.117 -251.524)" fill="#12263f"/>
            <g id="Grupo_1185642" data-name="Grupo 1185642" transform="translate(9.129 3.646)">
              <path id="Path_14_" d="M355.354,122.9l.248-.248a14.444,14.444,0,0,1-4.249,9.9.912.912,0,0,0,1.289,1.291,16.262,16.262,0,0,0,4.785-11.221l.284.284A.912.912,0,0,0,359,121.612l-1.823-1.823a.912.912,0,0,0-1.289,0l-1.823,1.823a.912.912,0,0,0,1.289,1.289v0Z" transform="translate(-322.812 -110.399)" fill="#12263f" fill-rule="evenodd"/>
              <path id="Path_13_" d="M88.529,48.458a.912.912,0,0,0,1.289,0l1.823-1.823a.912.912,0,0,0-1.289-1.289l-.248.248a14.444,14.444,0,0,1,4.249-9.9A.912.912,0,1,0,93.064,34.4,16.262,16.262,0,0,0,88.279,45.63l-.284-.284a.912.912,0,0,0-1.289,1.289Z" transform="translate(-86.449 -34.138)" fill="#12263f" fill-rule="evenodd"/>
            </g>
          </g>
        </g>
      </g>
    </g>
  </g>
</svg>
