<svg xmlns="http://www.w3.org/2000/svg" xmlns:xlink="http://www.w3.org/1999/xlink" width="130" height="130" viewBox="0 0 130 130">
  <defs>
    <clipPath id="clip-path">
      <rect id="Rectángulo_455533" data-name="Rectángulo 455533" width="130" height="124.675" fill="#19538d"/>
    </clipPath>
  </defs>
  <g id="Grupo_1186592" data-name="Grupo 1186592" transform="translate(0.295 -0.228)">
    <ellipse id="Elipse_13674" data-name="Elipse 13674" cx="55.433" cy="55.433" rx="55.433" ry="55.433" transform="translate(9.272 9.794)" fill="#fff"/>
    <g id="Grupo_1179062" data-name="Grupo 1179062" transform="translate(-0.295 0.228)">
      <rect id="Rectángulo_455531" data-name="Rectángulo 455531" width="130" height="130" transform="translate(0 0)" fill="none"/>
      <g id="Grupo_1179061" data-name="Grupo 1179061" transform="translate(0 3.059)">
        <path id="Trazado_998445" data-name="Trazado 998445" d="M121.348,97.577H96.727l3.337-6.223h24.621Z" transform="translate(1.399 1.395)" fill="#62249e"/>
        <path id="Trazado_998446" data-name="Trazado 998446" d="M2.024,86.893,0,91.012H27.145l2.024-4.119Z" transform="translate(0 1.333)" fill="#19538d"/>
        <path id="Trazado_998447" data-name="Trazado 998447" d="M124.8,32.583h-26l2.038-4.616h26Z" transform="translate(1.439 0.429)" fill="#19538d"/>
        <path id="Trazado_998448" data-name="Trazado 998448" d="M37.632,12.837H3.483L5.521,8.221H39.671Z" transform="translate(0.067 0.158)" fill="#19538d"/>
        <g id="Grupo_1179060" data-name="Grupo 1179060" transform="translate(0)">
          <g id="Grupo_1179059" data-name="Grupo 1179059" clip-path="url(#clip-path)">
            <path id="Trazado_998449" data-name="Trazado 998449" d="M64.959,116.745A55.15,55.15,0,0,1,11.184,49.237H3.839a62.343,62.343,0,0,0,109.679,51.42H103.9a55,55,0,0,1-38.942,16.088" transform="translate(0.041 0.762)" fill="#19538d"/>
            <path id="Trazado_998450" data-name="Trazado 998450" d="M110.835,88.975h8.158c.655-1.3,1.25-2.641,1.815-3.995h-7.844c-.659,1.363-1.365,2.7-2.13,3.995" transform="translate(1.732 1.314)" fill="#19538d"/>
            <path id="Trazado_998451" data-name="Trazado 998451" d="M127.263,62.338A62.358,62.358,0,0,0,5.373,43.8h7.568A55.178,55.178,0,1,1,116.109,82.912h7.644a62.054,62.054,0,0,0,3.51-20.574" transform="translate(0.084)" fill="#19538d"/>
            <path id="Trazado_998452" data-name="Trazado 998452" d="M108.562,81.649v3.383H113q.8-1.662,1.5-3.383Z" transform="translate(1.696 1.263)" fill="#19538d"/>
            <path id="Trazado_998453" data-name="Trazado 998453" d="M128.115,81.649h-6.163q-.6,1.715-1.3,3.383h7.46Z" transform="translate(1.885 1.263)" fill="#19538d"/>
          </g>
        </g>
        <path id="Trazado_998444" data-name="Trazado 998444" d="M3.057,37.025,0,43.248H18.482l3.058-6.223Z" transform="translate(0 0.565)" fill="#62249e"/>
      </g>
    </g>
    <g id="Grupo_1177669" data-name="Grupo 1177669" transform="translate(29.914 29.57)">
      <g id="Grupo_1099618" data-name="Grupo 1099618" transform="translate(0 0)">
        <rect id="Rectángulo_401104" data-name="Rectángulo 401104" width="69.491" height="70.328" transform="translate(0)" fill="none"/>
      </g>
      <g id="gestion-de-datos" transform="translate(0.758 1.111)">
        <g id="Grupo_1185742" data-name="Grupo 1185742" transform="translate(8.732 26.678)">
          <g id="Grupo_1185734" data-name="Grupo 1185734" transform="translate(0 32.415)">
            <path id="Trazado_1031490" data-name="Trazado 1031490" d="M57.928,59.033H9.865a1.13,1.13,0,0,0-1.1,1.408,5.633,5.633,0,0,0,5.445,4.213H53.594a5.623,5.623,0,0,0,5.436-4.213,1.13,1.13,0,0,0-1.1-1.408Z" transform="translate(-8.726 -59.033)" fill="#19538d"/>
          </g>
          <g id="Grupo_1185735" data-name="Grupo 1185735" transform="translate(3.174)">
            <path id="Trazado_1031491" data-name="Trazado 1031491" d="M52.149,26.653H15.9a4.009,4.009,0,0,0-4,4V57.566H56.153V30.657A4.009,4.009,0,0,0,52.149,26.653Zm-.5,27.149H16.4V31.157H51.648Z" transform="translate(-11.896 -26.653)" fill="#19538d"/>
          </g>
          <g id="Grupo_1185741" data-name="Grupo 1185741" transform="translate(14.097 8.266)">
            <g id="Grupo_1185736" data-name="Grupo 1185736" transform="translate(5.163 8.256)">
              <path id="Trazado_1031492" data-name="Trazado 1031492" d="M28.716,48.542a.751.751,0,0,1-.751-.751V43.908a.751.751,0,0,1,1.5,0v3.884A.751.751,0,0,1,28.716,48.542Z" transform="translate(-27.965 -43.157)" fill="#19538d"/>
            </g>
            <g id="Grupo_1185737" data-name="Grupo 1185737" transform="translate(15.488 5.355)">
              <path id="Trazado_1031493" data-name="Trazado 1031493" d="M39.03,48.545a.751.751,0,0,1-.751-.751V41.01a.751.751,0,1,1,1.5,0v6.785A.751.751,0,0,1,39.03,48.545Z" transform="translate(-38.279 -40.259)" fill="#19538d"/>
            </g>
            <g id="Grupo_1185738" data-name="Grupo 1185738" transform="translate(0 5.355)">
              <path id="Trazado_1031494" data-name="Trazado 1031494" d="M23.559,48.545a.751.751,0,0,1-.751-.751V41.01a.751.751,0,1,1,1.5,0v6.785A.751.751,0,0,1,23.559,48.545Z" transform="translate(-22.808 -40.259)" fill="#19538d"/>
            </g>
            <g id="Grupo_1185739" data-name="Grupo 1185739" transform="translate(10.326 2.627)">
              <path id="Trazado_1031495" data-name="Trazado 1031495" d="M33.873,48.548a.751.751,0,0,1-.751-.751V38.285a.751.751,0,1,1,1.5,0V47.8A.751.751,0,0,1,33.873,48.548Z" transform="translate(-33.123 -37.534)" fill="#19538d"/>
            </g>
            <g id="Grupo_1185740" data-name="Grupo 1185740" transform="translate(20.651)">
              <path id="Trazado_1031496" data-name="Trazado 1031496" d="M44.187,48.551a.751.751,0,0,1-.751-.751V35.661a.751.751,0,0,1,1.5,0V47.8A.751.751,0,0,1,44.187,48.551Z" transform="translate(-43.437 -34.91)" fill="#19538d"/>
            </g>
          </g>
        </g>
        <g id="Grupo_1185743" data-name="Grupo 1185743" transform="translate(2.616 3.353)">
          <path id="Trazado_1031497" data-name="Trazado 1031497" d="M53.43,19.089h-.07c.04-.44.07-.891.07-1.332A12.871,12.871,0,0,0,32.578,7.677a13.4,13.4,0,0,0-23.265,9.09,13.174,13.174,0,0,0,.871,4.745A10.81,10.81,0,0,0,10.4,42.2V30.682a5.515,5.515,0,0,1,5.506-5.506H52.159a5.515,5.515,0,0,1,5.506,5.506V42.144C69.417,38.69,67.756,19.08,53.43,19.089ZM22.717,9.109a7.662,7.662,0,0,0-7.648,7.658.751.751,0,0,1-1.5,0,9.168,9.168,0,0,1,9.15-9.16.751.751,0,0,1,0,1.5ZM40.566,10.66a6.973,6.973,0,0,0-4.4,1.532.755.755,0,0,1-.941-1.181,8.5,8.5,0,0,1,5.346-1.852.751.751,0,0,1,0,1.5Z" transform="translate(-2.616 -3.353)" fill="#19538d"/>
        </g>
      </g>
    </g>
  </g>
</svg>
