<svg xmlns="http://www.w3.org/2000/svg" xmlns:xlink="http://www.w3.org/1999/xlink" width="129" height="127" viewBox="0 0 129 127">
  <defs>
    <clipPath id="clip-path">
      <rect id="Rectángulo_454807" data-name="Rectángulo 454807" width="129" height="127" transform="translate(399.059 5904)" fill="#9ecfff"/>
    </clipPath>
  </defs>
  <g id="Grupo_1186612" data-name="Grupo 1186612" transform="translate(-409 -2903)">
    <g id="Grupo_1186607" data-name="Grupo 1186607" transform="translate(9.941 -1797)">
      <g id="Grupo_1177492" data-name="Grupo 1177492" transform="translate(0 -1204)">
        <rect id="Rectángulo_454806" data-name="Rectángulo 454806" width="129" height="127" transform="translate(399.059 5904)" fill="#9ecfff"/>
        <path id="Rectángulo_454808" data-name="Rectángulo 454808" d="M0,0H79A12,12,0,0,1,91,12V91a0,0,0,0,1,0,0H12A12,12,0,0,1,0,79V0A0,0,0,0,1,0,0Z" transform="translate(418.059 5922)" fill="#fff"/>
        <g id="Grupo_1177491" data-name="Grupo 1177491" transform="translate(13.443 -2497.801)">
          <g id="Grupo_1099776" data-name="Grupo 1099776" transform="translate(412.387 8428.781)">
            <g id="Grupo_1099618" data-name="Grupo 1099618" transform="translate(0 0)">
              <rect id="Rectángulo_401104" data-name="Rectángulo 401104" width="72.17" height="73.039" transform="translate(0)" fill="none"/>
            </g>
          </g>
        </g>
      </g>
      <path id="Trazado_998457" data-name="Trazado 998457" d="M21.193,13.724H3.483l2.43-5.5h17.71Z" transform="translate(406.088 4714.021)" fill="#fff"/>
      <path id="Trazado_998459" data-name="Trazado 998459" d="M21.193,13.724H3.483l2.43-5.5h17.71Z" transform="translate(497.088 4790.021)" fill="#fff"/>
      <path id="Trazado_998458" data-name="Trazado 998458" d="M21.193,13.724H3.483l2.43-5.5h17.71Z" transform="translate(401.088 4719.524)" fill="#9ecfff"/>
      <path id="Trazado_998461" data-name="Trazado 998461" d="M18.607,11.366H3.483L4.872,8.221H20Z" transform="translate(494.518 4795.524)" fill="#9ecfff"/>
      <path id="Trazado_998462" data-name="Trazado 998462" d="M18.607,11.366H3.483L4.872,8.221H20Z" transform="translate(497.088 4734.779)" fill="#9ecfff"/>
      <path id="Trazado_998463" data-name="Trazado 998463" d="M18.607,11.366H3.483L4.872,8.221H20Z" transform="translate(402.902 4780.779)" fill="#9ecfff"/>
    </g>
    <g id="computacion-en-la-nube_2_" data-name="computacion-en-la-nube (2)" transform="translate(404.32 2934.369)">
      <path id="Trazado_1032919" data-name="Trazado 1032919" d="M74.575,126.032q-.061,0-.122-.006a9.654,9.654,0,0,1-.1-19.214,16.286,16.286,0,0,1,30.124-5.091,12.381,12.381,0,0,1,1.371-.076,12.212,12.212,0,0,1,3.762,23.835,1.289,1.289,0,1,1-.792-2.453,9.634,9.634,0,0,0-2.97-18.8,9.745,9.745,0,0,0-1.835.174,1.289,1.289,0,0,1-1.4-.69A13.706,13.706,0,0,0,76.751,108.2a1.289,1.289,0,0,1-1.295,1.139h0a7.077,7.077,0,0,0-.761,14.121,1.289,1.289,0,0,1-.119,2.572Z" transform="translate(-22.38 -81.49)" fill="#19538d"/>
      <g id="Grupo_1186459" data-name="Grupo 1186459" transform="translate(50.959 30.635)">
        <path id="Rectángulo_459769" data-name="Rectángulo 459769" d="M-8.711-10H25.813A1.289,1.289,0,0,1,27.1-8.711V18.618a1.289,1.289,0,0,1-1.289,1.289H-8.711A1.289,1.289,0,0,1-10,18.618V-8.711A1.289,1.289,0,0,1-8.711-10ZM24.524-7.422H-7.422V17.329H24.524Z" transform="translate(10 10)" fill="#19538d"/>
        <path id="Rectángulo_459770" data-name="Rectángulo 459770" d="M1.289,0H17.556a1.289,1.289,0,0,1,1.289,1.289v23.45a1.289,1.289,0,0,1-1.289,1.289H1.289A1.289,1.289,0,0,1,0,24.739V1.289A1.289,1.289,0,0,1,1.289,0ZM16.267,2.578H2.578V23.45H16.267Z" transform="translate(31.565 5.531) rotate(90)" fill="#19538d"/>
        <path id="Trazado_1032920" data-name="Trazado 1032920" d="M214.46,457.716H198.6a1.289,1.289,0,0,1-1.161-1.85l2.637-5.455a1.289,1.289,0,0,1,1.16-.728h10.592a1.289,1.289,0,0,1,1.161.728l2.637,5.455a1.289,1.289,0,0,1-1.161,1.85Zm-13.81-2.578h11.755l-1.39-2.876H202.04Z" transform="translate(-187.977 -422.355)" fill="#19538d"/>
        <path id="Línea_3273" data-name="Línea 3273" d="M12.786-7.422h-21.5A1.289,1.289,0,0,1-10-8.711,1.289,1.289,0,0,1-8.711-10h21.5a1.289,1.289,0,0,1,1.289,1.289A1.289,1.289,0,0,1,12.786-7.422Z" transform="translate(16.513 42.784)" fill="#19538d"/>
      </g>
      <g id="Grupo_1186460" data-name="Grupo 1186460" transform="translate(64.741)">
        <path id="Línea_3274" data-name="Línea 3274" d="M-8.711-2.667A1.289,1.289,0,0,1-10-3.956V-8.711A1.289,1.289,0,0,1-8.711-10,1.289,1.289,0,0,1-7.422-8.711v4.755A1.289,1.289,0,0,1-8.711-2.667Z" transform="translate(13.48 17.132)" fill="#19538d"/>
        <path id="Elipse_13773" data-name="Elipse 13773" d="M-5.231-10A4.772,4.772,0,0,1-.462-5.235,4.772,4.772,0,0,1-5.231-.47,4.772,4.772,0,0,1-10-5.235,4.772,4.772,0,0,1-5.231-10Zm0,6.952A2.192,2.192,0,0,0-3.04-5.235,2.192,2.192,0,0,0-5.231-7.422,2.192,2.192,0,0,0-7.422-5.235,2.192,2.192,0,0,0-5.231-3.048Z" transform="translate(10 10)" fill="#19538d"/>
      </g>
      <g id="Grupo_1186462" data-name="Grupo 1186462" transform="translate(80.15 6.438)">
        <path id="Trazado_1032921" data-name="Trazado 1032921" d="M352.684,89.874a1.289,1.289,0,0,1-1.289-1.289V78.2a1.289,1.289,0,0,1,1.289-1.289h4.644a1.289,1.289,0,0,1,0,2.578h-3.355v9.1A1.289,1.289,0,0,1,352.684,89.874Z" transform="translate(-351.395 -73.435)" fill="#19538d"/>
        <g id="Grupo_1186461" data-name="Grupo 1186461" transform="translate(4.811)">
          <path id="Elipse_13774" data-name="Elipse 13774" d="M-5.231-10A4.772,4.772,0,0,1-.462-5.235,4.772,4.772,0,0,1-5.231-.47,4.772,4.772,0,0,1-10-5.235,4.772,4.772,0,0,1-5.231-10Zm0,6.952A2.192,2.192,0,0,0-3.04-5.235,2.192,2.192,0,0,0-5.231-7.422,2.192,2.192,0,0,0-7.422-5.235,2.192,2.192,0,0,0-5.231-3.048Z" transform="translate(10 10)" fill="#19538d"/>
        </g>
      </g>
      <g id="Grupo_1186464" data-name="Grupo 1186464" transform="translate(40.013 11.369)">
        <path id="Trazado_1032922" data-name="Trazado 1032922" d="M101.268,128.133a1.289,1.289,0,0,1-1.289-1.289v-9.1h-3.35a1.289,1.289,0,1,1,0-2.578h4.639a1.289,1.289,0,0,1,1.289,1.289v10.385A1.289,1.289,0,0,1,101.268,128.133Z" transform="translate(-88.208 -111.694)" fill="#19538d"/>
        <g id="Grupo_1186463" data-name="Grupo 1186463">
          <path id="Elipse_13775" data-name="Elipse 13775" d="M-5.231-10A4.772,4.772,0,0,1-.462-5.235,4.772,4.772,0,0,1-5.231-.47,4.772,4.772,0,0,1-10-5.235,4.772,4.772,0,0,1-5.231-10Zm0,6.952A2.192,2.192,0,0,0-3.04-5.235,2.192,2.192,0,0,0-5.231-7.422,2.192,2.192,0,0,0-7.422-5.235,2.192,2.192,0,0,0-5.231-3.048Z" transform="translate(10 10)" fill="#19538d"/>
        </g>
      </g>
    </g>
  </g>
</svg>
