<svg xmlns="http://www.w3.org/2000/svg" xmlns:xlink="http://www.w3.org/1999/xlink" width="129" height="127" viewBox="0 0 129 127">
  <defs>
    <clipPath id="clip-path">
      <rect id="Rectángulo_454807" data-name="Rectángulo 454807" width="129" height="127" transform="translate(399.059 5904)" fill="#9ecfff"/>
    </clipPath>
  </defs>
  <g id="Grupo_1186614" data-name="Grupo 1186614" transform="translate(-409 -2569)">
    <g id="Grupo_1186605" data-name="Grupo 1186605" transform="translate(9.941 -2131)">
      <g id="Grupo_1177492" data-name="Grupo 1177492" transform="translate(0 -1204)">
        <rect id="Rectángulo_454806" data-name="Rectángulo 454806" width="129" height="127" transform="translate(399.059 5904)" fill="#9ecfff"/>
        <path id="Rectángulo_454808" data-name="Rectángulo 454808" d="M0,0H79A12,12,0,0,1,91,12V91a0,0,0,0,1,0,0H12A12,12,0,0,1,0,79V0A0,0,0,0,1,0,0Z" transform="translate(418.059 5922)" fill="#fff"/>
      </g>
      <path id="Trazado_998457" data-name="Trazado 998457" d="M21.193,13.724H3.483l2.43-5.5h17.71Z" transform="translate(406.088 4714.021)" fill="#fff"/>
      <path id="Trazado_998459" data-name="Trazado 998459" d="M21.193,13.724H3.483l2.43-5.5h17.71Z" transform="translate(497.088 4790.021)" fill="#fff"/>
      <path id="Trazado_998458" data-name="Trazado 998458" d="M21.193,13.724H3.483l2.43-5.5h17.71Z" transform="translate(401.088 4719.524)" fill="#9ecfff"/>
      <path id="Trazado_998461" data-name="Trazado 998461" d="M18.607,11.366H3.483L4.872,8.221H20Z" transform="translate(494.518 4795.524)" fill="#9ecfff"/>
      <path id="Trazado_998462" data-name="Trazado 998462" d="M18.607,11.366H3.483L4.872,8.221H20Z" transform="translate(497.088 4734.779)" fill="#9ecfff"/>
      <path id="Trazado_998463" data-name="Trazado 998463" d="M18.607,11.366H3.483L4.872,8.221H20Z" transform="translate(402.902 4780.779)" fill="#9ecfff"/>
    </g>
    <g id="reparar" transform="translate(394.498 2598.106)">
      <path id="Trazado_1032919" data-name="Trazado 1032919" d="M137.247,93.759a1.326,1.326,0,0,1,1.326,1.326V101.9l3.126,2.278,3.126-2.278V95.085a1.326,1.326,0,0,1,1.886-1.2,11.9,11.9,0,0,1,.446,21.356V134.7a1.326,1.326,0,0,1-1.326,1.326h-8.263a1.326,1.326,0,0,1-1.326-1.326V115.238a11.9,11.9,0,0,1,.446-21.356A1.325,1.325,0,0,1,137.247,93.759ZM144.5,133.37V114.4a1.326,1.326,0,0,1,.807-1.221,9.241,9.241,0,0,0,2.166-15.715v5.109a1.326,1.326,0,0,1-.545,1.072l-4.452,3.245a1.326,1.326,0,0,1-1.563,0l-4.452-3.245a1.326,1.326,0,0,1-.545-1.072V97.462a9.241,9.241,0,0,0,2.166,15.715,1.326,1.326,0,0,1,.807,1.221V133.37Z" transform="translate(-62.876 -81.323)" fill="#19538d"/>
      <g id="Grupo_1186446" data-name="Grupo 1186446" transform="translate(57.316 0)">
        <g id="Grupo_1186445" data-name="Grupo 1186445">
          <g id="Grupo_1186444" data-name="Grupo 1186444">
            <path id="Trazado_1032920" data-name="Trazado 1032920" d="M95.44,67.909H62.205a4.895,4.895,0,0,1-4.889-4.889V4.889A4.895,4.895,0,0,1,62.205,0H95.44a4.895,4.895,0,0,1,4.889,4.889V37.332a1.326,1.326,0,1,1-2.653,0V4.889A2.239,2.239,0,0,0,95.44,2.653H62.205a2.239,2.239,0,0,0-2.237,2.237v58.13a2.239,2.239,0,0,0,2.237,2.237H95.44a2.239,2.239,0,0,0,2.237-2.237V57.332a1.326,1.326,0,1,1,2.653,0v5.688A4.895,4.895,0,0,1,95.44,67.909Z" transform="translate(-57.316 0)" fill="#19538d"/>
            <g id="Grupo_1186443" data-name="Grupo 1186443" transform="translate(18.696 58.279)">
              <path id="Línea_3273" data-name="Línea 3273" d="M-5.7-7.347h-2.97A1.326,1.326,0,0,1-10-8.674,1.326,1.326,0,0,1-8.674-10H-5.7A1.326,1.326,0,0,1-4.378-8.674,1.326,1.326,0,0,1-5.7-7.347Z" transform="translate(10 10)" fill="#19538d"/>
            </g>
            <path id="Línea_3274" data-name="Línea 3274" d="M17.493-7.347H-8.674A1.326,1.326,0,0,1-10-8.674,1.326,1.326,0,0,1-8.674-10H17.493a1.326,1.326,0,0,1,1.326,1.326A1.326,1.326,0,0,1,17.493-7.347Z" transform="translate(16.399 62.046)" fill="#19538d"/>
          </g>
          <path id="Línea_3275" data-name="Línea 3275" d="M14.242-7.347H-8.674A1.326,1.326,0,0,1-10-8.674,1.326,1.326,0,0,1-8.674-10H14.242a1.326,1.326,0,0,1,1.326,1.326A1.326,1.326,0,0,1,14.242-7.347Z" transform="translate(18.723 16.298)" fill="#19538d"/>
        </g>
      </g>
      <g id="Grupo_1186448" data-name="Grupo 1186448" transform="translate(87.986 36.195)">
        <g id="Grupo_1186447" data-name="Grupo 1186447">
          <path id="Trazado_1032921" data-name="Trazado 1032921" d="M301.43,294.947h-3.721a1.326,1.326,0,0,1-1.294-1.035l-.113-.5a9.976,9.976,0,0,1-1.125-.467l-.435.275a1.326,1.326,0,0,1-1.648-.183l-2.631-2.633a1.326,1.326,0,0,1-.183-1.646l.276-.436a9.968,9.968,0,0,1-.467-1.127l-.5-.113a1.326,1.326,0,0,1-1.035-1.294V282.06a1.326,1.326,0,0,1,1.035-1.294l.5-.113a9.969,9.969,0,0,1,.467-1.127l-.276-.436a1.326,1.326,0,0,1,.183-1.646l2.631-2.633a1.326,1.326,0,0,1,1.648-.183l.435.275a9.954,9.954,0,0,1,1.125-.467l.113-.5a1.326,1.326,0,0,1,1.294-1.035h3.721a1.326,1.326,0,0,1,1.294,1.035l.113.5a9.965,9.965,0,0,1,1.125.467l.435-.275a1.326,1.326,0,0,1,1.648.183l2.631,2.633a1.326,1.326,0,0,1,.183,1.646l-.276.436a9.967,9.967,0,0,1,.467,1.127l.5.113a1.326,1.326,0,0,1,1.035,1.294v3.724a1.326,1.326,0,0,1-1.035,1.294l-.5.113a9.974,9.974,0,0,1-.467,1.127l.276.436a1.326,1.326,0,0,1-.183,1.646l-2.631,2.633a1.326,1.326,0,0,1-1.648.183l-.435-.275a9.949,9.949,0,0,1-1.125.467l-.113.5A1.326,1.326,0,0,1,301.43,294.947Zm-2.66-2.653h1.6l.05-.224a1.326,1.326,0,0,1,.968-.995,7.313,7.313,0,0,0,1.949-.809,1.327,1.327,0,0,1,1.389.018l.194.123,1.131-1.132-.123-.2a1.326,1.326,0,0,1-.019-1.387,7.331,7.331,0,0,0,.808-1.951,1.326,1.326,0,0,1,.994-.968l.223-.05v-1.6l-.223-.05a1.326,1.326,0,0,1-.994-.968,7.332,7.332,0,0,0-.808-1.951,1.326,1.326,0,0,1,.019-1.387l.123-.2-1.131-1.132-.194.123a1.326,1.326,0,0,1-1.389.019,7.318,7.318,0,0,0-1.949-.809,1.326,1.326,0,0,1-.968-.995l-.05-.224h-1.6l-.05.224a1.326,1.326,0,0,1-.968.995,7.313,7.313,0,0,0-1.949.809,1.326,1.326,0,0,1-1.389-.018l-.194-.123-1.131,1.132.124.2a1.326,1.326,0,0,1,.019,1.387,7.333,7.333,0,0,0-.808,1.951,1.326,1.326,0,0,1-.994.968l-.223.05v1.6l.223.05a1.326,1.326,0,0,1,.994.968,7.332,7.332,0,0,0,.808,1.951,1.326,1.326,0,0,1-.019,1.387l-.124.2,1.131,1.132.194-.123a1.326,1.326,0,0,1,1.389-.018,7.319,7.319,0,0,0,1.949.809,1.326,1.326,0,0,1,.968.994Z" transform="translate(-288.552 -272.897)" fill="#19538d"/>
        </g>
        <path id="Línea_3276" data-name="Línea 3276" transform="translate(11.017 11.025)" fill="#19538d"/>
      </g>
    </g>
  </g>
</svg>
