<svg xmlns="http://www.w3.org/2000/svg" xmlns:xlink="http://www.w3.org/1999/xlink" width="129" height="127" viewBox="0 0 129 127">
  <defs>
    <clipPath id="clip-path">
      <rect id="Rectángulo_454807" data-name="Rectángulo 454807" width="129" height="127" transform="translate(399.059 5904)" fill="#9ecfff"/>
    </clipPath>
  </defs>
  <g id="Grupo_1186615" data-name="Grupo 1186615" transform="translate(-409 -2400)">
    <g id="Grupo_1186604" data-name="Grupo 1186604" transform="translate(9.941 -2300)">
      <g id="Grupo_1177492" data-name="Grupo 1177492" transform="translate(0 -1204)">
        <rect id="Rectángulo_454806" data-name="Rectángulo 454806" width="129" height="127" transform="translate(399.059 5904)" fill="#9ecfff"/>
        <path id="Rectángulo_454808" data-name="Rectángulo 454808" d="M0,0H79A12,12,0,0,1,91,12V91a0,0,0,0,1,0,0H12A12,12,0,0,1,0,79V0A0,0,0,0,1,0,0Z" transform="translate(418.059 5922)" fill="#fff"/>
      </g>
      <path id="Trazado_998457" data-name="Trazado 998457" d="M21.193,13.724H3.483l2.43-5.5h17.71Z" transform="translate(406.088 4714.021)" fill="#fff"/>
      <path id="Trazado_998459" data-name="Trazado 998459" d="M21.193,13.724H3.483l2.43-5.5h17.71Z" transform="translate(497.088 4790.021)" fill="#fff"/>
      <path id="Trazado_998458" data-name="Trazado 998458" d="M21.193,13.724H3.483l2.43-5.5h17.71Z" transform="translate(401.088 4719.524)" fill="#9ecfff"/>
      <path id="Trazado_998461" data-name="Trazado 998461" d="M18.607,11.366H3.483L4.872,8.221H20Z" transform="translate(494.518 4795.524)" fill="#9ecfff"/>
      <path id="Trazado_998462" data-name="Trazado 998462" d="M18.607,11.366H3.483L4.872,8.221H20Z" transform="translate(497.088 4734.779)" fill="#9ecfff"/>
      <path id="Trazado_998463" data-name="Trazado 998463" d="M18.607,11.366H3.483L4.872,8.221H20Z" transform="translate(402.902 4780.779)" fill="#9ecfff"/>
    </g>
    <g id="archivos" transform="translate(441.92 2421.014)">
      <g id="Grupo_1186432" data-name="Grupo 1186432" transform="translate(0 61.839)">
        <path id="Trazado_1032919" data-name="Trazado 1032919" d="M21.215,393.425a1.272,1.272,0,0,1,.687.2l8.446,5.414a1.273,1.273,0,0,1,0,2.143L21.9,406.6a1.273,1.273,0,0,1-1.959-1.071v-1.348H1.273A1.273,1.273,0,0,1,0,402.906v-5.575a1.273,1.273,0,0,1,1.273-1.273h18.67V394.7a1.273,1.273,0,0,1,1.273-1.273Zm6.088,6.687-4.815-3.087v.305a1.273,1.273,0,0,1-1.273,1.273H2.545v3.03h18.67a1.273,1.273,0,0,1,1.273,1.273v.293Z" transform="translate(0 -393.425)" fill="#19538d"/>
      </g>
      <g id="Grupo_1186439" data-name="Grupo 1186439" transform="translate(0 8.101)">
        <g id="Grupo_1186436" data-name="Grupo 1186436" transform="translate(6.316 14.06)">
          <g id="Grupo_1186433" data-name="Grupo 1186433" transform="translate(6.765 0)">
            <path id="Línea_3273" data-name="Línea 3273" d="M-8.729-.441A1.272,1.272,0,0,1-9.114-.5a1.273,1.273,0,0,1-.828-1.6l2.225-7.016a1.273,1.273,0,0,1,1.6-.828,1.273,1.273,0,0,1,.828,1.6L-7.517-1.329A1.273,1.273,0,0,1-8.729-.441Z" transform="translate(10.003 10.003)" fill="#19538d"/>
          </g>
          <g id="Grupo_1186434" data-name="Grupo 1186434" transform="translate(13.692 0)">
            <path id="Trazado_1032920" data-name="Trazado 1032920" d="M158.493,133.528a1.273,1.273,0,0,1-1.1-1.908l1.689-2.93-1.678-2.8a1.273,1.273,0,1,1,2.182-1.31l2.063,3.438a1.273,1.273,0,0,1,.011,1.29l-2.063,3.578A1.272,1.272,0,0,1,158.493,133.528Z" transform="translate(-157.221 -123.967)" fill="#19538d"/>
          </g>
          <g id="Grupo_1186435" data-name="Grupo 1186435" transform="translate(0 0)">
            <path id="Trazado_1032921" data-name="Trazado 1032921" d="M52.97,133.528a1.272,1.272,0,0,1-1.1-.637L49.8,129.313a1.273,1.273,0,0,1,.011-1.291l2.063-3.438a1.273,1.273,0,0,1,2.182,1.31l-1.678,2.8,1.689,2.93a1.273,1.273,0,0,1-1.1,1.909Z" transform="translate(-49.633 -123.967)" fill="#19538d"/>
          </g>
        </g>
        <g id="Grupo_1186438" data-name="Grupo 1186438" transform="translate(0 0)">
          <g id="Grupo_1186437" data-name="Grupo 1186437">
            <path id="Trazado_1032922" data-name="Trazado 1032922" d="M1.273,13.487H21.491a1.273,1.273,0,0,1,.9.375l8.17,8.217a1.273,1.273,0,0,1,.37.9V56.634a1.273,1.273,0,0,1-1.273,1.273H1.273A1.273,1.273,0,0,1,0,56.634V14.76A1.273,1.273,0,0,1,1.273,13.487Zm19.689,2.545H2.545V55.361H28.388V23.5Z" transform="translate(0 -13.487)" fill="#19538d"/>
            <path id="Trazado_1032923" data-name="Trazado 1032923" d="M168.309,24.249h-8.17a1.273,1.273,0,0,1-1.273-1.273V14.759a1.273,1.273,0,0,1,2.175-.9l8.17,8.217a1.273,1.273,0,0,1-.9,2.17Zm-6.9-2.545h3.838l-3.838-3.86Z" transform="translate(-138.648 -13.487)" fill="#19538d"/>
          </g>
        </g>
        <path id="Rectángulo_459769" data-name="Rectángulo 459769" d="M-8.727-10H7.89A1.273,1.273,0,0,1,9.162-8.727V-1.8A1.273,1.273,0,0,1,7.89-.524H-8.727A1.273,1.273,0,0,1-10-1.8V-8.727A1.273,1.273,0,0,1-8.727-10ZM6.617-7.455H-7.455v4.386H6.617Z" transform="translate(16.221 37.664)" fill="#19538d"/>
      </g>
      <g id="Grupo_1186442" data-name="Grupo 1186442" transform="translate(34.226 30.311)">
        <g id="Grupo_1186441" data-name="Grupo 1186441">
          <g id="Grupo_1186440" data-name="Grupo 1186440">
            <path id="Trazado_1032924" data-name="Trazado 1032924" d="M270.207,145.686h20.218a1.273,1.273,0,0,1,.9.375l8.17,8.217a1.273,1.273,0,0,1,.37.9v33.657a1.273,1.273,0,0,1-1.273,1.273H270.207a1.273,1.273,0,0,1-1.273-1.273V146.959A1.273,1.273,0,0,1,270.207,145.686Zm19.689,2.545H271.479V187.56h25.843V155.7Z" transform="translate(-268.934 -145.686)" fill="#19538d"/>
            <path id="Trazado_1032925" data-name="Trazado 1032925" d="M437.242,156.448h-8.17a1.273,1.273,0,0,1-1.273-1.273v-8.217a1.273,1.273,0,0,1,2.175-.9l8.171,8.217a1.273,1.273,0,0,1-.9,2.17Zm-6.9-2.545h3.838l-3.838-3.86Z" transform="translate(-407.581 -145.686)" fill="#19538d"/>
          </g>
        </g>
      </g>
      <path id="Trazado_1032926" data-name="Trazado 1032926" d="M325.426,240.3a1.27,1.27,0,0,1,.8.282l1.172.945a12.057,12.057,0,0,0,6.369,2.618,1.273,1.273,0,0,1,1.144,1.266v11.961a6.881,6.881,0,0,1-3.766,6.157l-5.14,2.624a1.273,1.273,0,0,1-1.157,0l-5.14-2.624a6.882,6.882,0,0,1-3.766-6.157V245.416a1.273,1.273,0,0,1,1.144-1.266,12.056,12.056,0,0,0,6.369-2.618l1.172-.945A1.27,1.27,0,0,1,325.426,240.3Zm6.939,6.216a14.593,14.593,0,0,1-6.566-3.007l-.373-.3-.373.3a14.593,14.593,0,0,1-6.566,3.007v10.856a4.347,4.347,0,0,0,2.378,3.89l4.561,2.329,4.561-2.329a4.347,4.347,0,0,0,2.378-3.89Z" transform="translate(-275.734 -197.953)" fill="#19538d"/>
    </g>
  </g>
</svg>
