<svg xmlns="http://www.w3.org/2000/svg" xmlns:xlink="http://www.w3.org/1999/xlink" width="129" height="127" viewBox="0 0 129 127">
  <defs>
    <clipPath id="clip-path">
      <rect id="Rectángulo_454807" data-name="Rectángulo 454807" width="129" height="127" transform="translate(399.059 5904)" fill="#9ecfff"/>
    </clipPath>
  </defs>
  <g id="Grupo_1186611" data-name="Grupo 1186611" transform="translate(-409 -3072)">
    <g id="Grupo_1186608" data-name="Grupo 1186608" transform="translate(9.941 -1628)">
      <g id="Grupo_1177492" data-name="Grupo 1177492" transform="translate(0 -1204)">
        <rect id="Rectángulo_454806" data-name="Rectángulo 454806" width="129" height="127" transform="translate(399.059 5904)" fill="#9ecfff"/>
        <path id="Rectángulo_454808" data-name="Rectángulo 454808" d="M0,0H79A12,12,0,0,1,91,12V91a0,0,0,0,1,0,0H12A12,12,0,0,1,0,79V0A0,0,0,0,1,0,0Z" transform="translate(418.059 5922)" fill="#fff"/>
      </g>
      <path id="Trazado_998457" data-name="Trazado 998457" d="M21.193,13.724H3.483l2.43-5.5h17.71Z" transform="translate(406.088 4714.021)" fill="#fff"/>
      <path id="Trazado_998459" data-name="Trazado 998459" d="M21.193,13.724H3.483l2.43-5.5h17.71Z" transform="translate(497.088 4790.021)" fill="#fff"/>
      <path id="Trazado_998458" data-name="Trazado 998458" d="M21.193,13.724H3.483l2.43-5.5h17.71Z" transform="translate(401.088 4719.524)" fill="#9ecfff"/>
      <path id="Trazado_998461" data-name="Trazado 998461" d="M18.607,11.366H3.483L4.872,8.221H20Z" transform="translate(494.518 4795.524)" fill="#9ecfff"/>
      <path id="Trazado_998462" data-name="Trazado 998462" d="M18.607,11.366H3.483L4.872,8.221H20Z" transform="translate(497.088 4734.779)" fill="#9ecfff"/>
      <path id="Trazado_998463" data-name="Trazado 998463" d="M18.607,11.366H3.483L4.872,8.221H20Z" transform="translate(402.902 4780.779)" fill="#9ecfff"/>
    </g>
    <g id="buscar_1_" data-name="buscar (1)" transform="translate(399.314 3102.652)">
      <g id="Grupo_1186465" data-name="Grupo 1186465" transform="translate(65.229 5.484)">
        <path id="Trazado_1032919" data-name="Trazado 1032919" d="M167.594,130.65H153.865a1.288,1.288,0,0,1-1.288-1.288V127.6a6.123,6.123,0,0,1,6.116-6.116h4.073a6.123,6.123,0,0,1,6.116,6.116v1.758A1.288,1.288,0,0,1,167.594,130.65Zm-12.44-2.577h11.152v-.47a3.543,3.543,0,0,0-3.539-3.539h-4.073a3.543,3.543,0,0,0-3.539,3.539Z" transform="translate(-152.577 -111.318)" fill="#19538d"/>
        <path id="Elipse_13773" data-name="Elipse 13773" d="M-3.646-10A6.371,6.371,0,0,1,2.707-3.627,6.371,6.371,0,0,1-3.646,2.746,6.371,6.371,0,0,1-10-3.627,6.371,6.371,0,0,1-3.646-10Zm0,10.169A3.791,3.791,0,0,0,.13-3.627a3.791,3.791,0,0,0-3.777-3.8,3.791,3.791,0,0,0-3.777,3.8A3.791,3.791,0,0,0-3.646.169Z" transform="translate(11.799 10)" fill="#19538d"/>
      </g>
      <g id="Grupo_1186468" data-name="Grupo 1186468" transform="translate(52.31 0)">
        <g id="Grupo_1186467" data-name="Grupo 1186467">
          <path id="Trazado_1032920" data-name="Trazado 1032920" d="M89.345,65.968H57.06a4.755,4.755,0,0,1-4.75-4.75V4.75A4.755,4.755,0,0,1,57.06,0H89.345a4.755,4.755,0,0,1,4.75,4.75v33.72a1.288,1.288,0,1,1-2.577,0V4.75a2.175,2.175,0,0,0-2.173-2.173H57.06A2.175,2.175,0,0,0,54.887,4.75V61.218a2.175,2.175,0,0,0,2.173,2.173H89.345a2.175,2.175,0,0,0,2.173-2.173V56.979a1.288,1.288,0,1,1,2.577,0v4.239A4.755,4.755,0,0,1,89.345,65.968Z" transform="translate(-52.31 0)" fill="#19538d"/>
          <g id="Grupo_1186466" data-name="Grupo 1186466" transform="translate(18.161 56.613)">
            <path id="Línea_3273" data-name="Línea 3273" d="M-5.827-7.423H-8.712A1.288,1.288,0,0,1-10-8.712,1.288,1.288,0,0,1-8.712-10h2.885A1.288,1.288,0,0,1-4.538-8.712,1.288,1.288,0,0,1-5.827-7.423Z" transform="translate(10 10)" fill="#19538d"/>
          </g>
          <path id="Línea_3274" data-name="Línea 3274" d="M16.063-7.423H-8.712A1.288,1.288,0,0,1-10-8.712,1.288,1.288,0,0,1-8.712-10H16.063a1.288,1.288,0,0,1,1.288,1.288A1.288,1.288,0,0,1,16.063-7.423Z" transform="translate(16.216 60.816)" fill="#19538d"/>
        </g>
      </g>
      <path id="Rectángulo_459769" data-name="Rectángulo 459769" d="M-8.712-10H18.707A1.288,1.288,0,0,1,20-8.712V-2.74a1.288,1.288,0,0,1-1.288,1.288H-8.712A1.288,1.288,0,0,1-10-2.74V-8.712A1.288,1.288,0,0,1-8.712-10Zm26.13,2.577H-7.423v3.395H17.419Z" transform="translate(68.259 37.866)" fill="#19538d"/>
      <path id="Trazado_1032921" data-name="Trazado 1032921" d="M124.078,313.922H99.77a1.288,1.288,0,0,1-1.288-1.288v-5.972a1.288,1.288,0,0,1,1.288-1.288h27.419a1.288,1.288,0,1,1,0,2.577h-26.13v3.395h23.02a1.288,1.288,0,0,1,0,2.577Z" transform="translate(-40.223 -266.028)" fill="#19538d"/>
      <path id="Elipse_13774" data-name="Elipse 13774" d="M.21-10A10.231,10.231,0,0,1,10.42.228,10.231,10.231,0,0,1,.21,10.457,10.231,10.231,0,0,1-10,.228,10.231,10.231,0,0,1,.21-10Zm0,17.88a7.652,7.652,0,0,0,0-15.3,7.652,7.652,0,0,0,0,15.3Z" transform="translate(92.638 47.404)" fill="#19538d"/>
      <path id="Línea_3275" data-name="Línea 3275" d="M-5.132-3.843a1.284,1.284,0,0,1-.911-.377L-9.623-7.8a1.288,1.288,0,0,1,0-1.822,1.288,1.288,0,0,1,1.822,0l3.58,3.58a1.288,1.288,0,0,1,0,1.822A1.284,1.284,0,0,1-5.132-3.843Z" transform="translate(108.642 62.269)" fill="#19538d"/>
    </g>
  </g>
</svg>
