<svg xmlns="http://www.w3.org/2000/svg" xmlns:xlink="http://www.w3.org/1999/xlink" width="150" height="150" viewBox="0 0 150 150">
  <defs>
    <clipPath id="clip-path">
      <rect id="Rectángulo_455533" data-name="Rectángulo 455533" width="149.812" height="143.185" fill="#19538d"/>
    </clipPath>
    <clipPath id="clip-path-2">
      <path id="path3711" d="M0-682.665H77.336v77.336H0Z" transform="translate(0 682.665)" fill="#fff"/>
    </clipPath>
  </defs>
  <g id="Grupo_1186617" data-name="Grupo 1186617" transform="translate(-305.059 -10093)">
    <g id="Grupo_1179079" data-name="Grupo 1179079" transform="translate(-78.59 1694.097)">
      <circle id="Elipse_13674" data-name="Elipse 13674" cx="65.5" cy="65.5" r="65.5" transform="translate(393.649 8407.903)" fill="#19538d"/>
      <g id="Grupo_1179062" data-name="Grupo 1179062" transform="translate(383.649 8398.903)">
        <rect id="Rectángulo_455531" data-name="Rectángulo 455531" width="150" height="150" transform="translate(0 0)" fill="none"/>
        <g id="Grupo_1179061" data-name="Grupo 1179061" transform="translate(0.094 3.9)">
          <path id="Trazado_998445" data-name="Trazado 998445" d="M127.367,99.1H96.727l4.153-7.745h30.64Z" transform="translate(13.418 14.697)" fill="#19538d"/>
          <path id="Trazado_998446" data-name="Trazado 998446" d="M2.518,86.893,0,92.019h33.78L36.3,86.893Z" transform="translate(0 14.142)" fill="#19538d"/>
          <path id="Trazado_998447" data-name="Trazado 998447" d="M131.16,33.711H98.809l2.537-5.745H133.7Z" transform="translate(13.977 4.539)" fill="#19538d"/>
          <path id="Trazado_998448" data-name="Trazado 998448" d="M45.981,13.965H3.483L6.02,8.221h42.5Z" transform="translate(0.935 2.207)" fill="#19538d"/>
          <g id="Grupo_1179060" data-name="Grupo 1179060" transform="translate(0)">
            <g id="Grupo_1179059" data-name="Grupo 1179059" clip-path="url(#clip-path)">
              <path id="Trazado_998449" data-name="Trazado 998449" d="M74.461,126.768A63.317,63.317,0,0,1,12.49,49.237H4.026A71.853,71.853,0,0,0,130.42,108.291H119.338a63.5,63.5,0,0,1-44.877,18.477" transform="translate(0.445 8.185)" fill="#19538d"/>
              <path id="Trazado_998450" data-name="Trazado 998450" d="M110.835,89.568h9.4c.755-1.5,1.441-3.033,2.091-4.588h-9.039c-.76,1.565-1.573,3.1-2.454,4.588" transform="translate(18.887 14.126)" fill="#19538d"/>
              <path id="Trazado_998451" data-name="Trazado 998451" d="M145.839,71.593A71.893,71.893,0,0,0,5.373,50.3h8.722A63.623,63.623,0,0,1,137.577,71.593a62.852,62.852,0,0,1-4.591,23.629h8.808a71.048,71.048,0,0,0,4.045-23.629" transform="translate(0.916)" fill="#19538d"/>
              <path id="Trazado_998452" data-name="Trazado 998452" d="M108.562,81.649v3.885h5.115q.927-1.909,1.726-3.885Z" transform="translate(18.499 13.573)" fill="#19538d"/>
              <path id="Trazado_998453" data-name="Trazado 998453" d="M129.252,81.649h-7.1q-.693,1.97-1.495,3.885h8.6Z" transform="translate(20.56 13.573)" fill="#19538d"/>
            </g>
          </g>
          <path id="Trazado_998444" data-name="Trazado 998444" d="M3.8,37.025,0,44.77H23l3.805-7.745Z" transform="translate(0 5.957)" fill="#19538d"/>
        </g>
      </g>
    </g>
    <g id="Grupo_1179080" data-name="Grupo 1179080" transform="translate(336.059 10124)">
      <g id="Grupo_1099618" data-name="Grupo 1099618" transform="translate(0 0)">
        <rect id="Rectángulo_401104" data-name="Rectángulo 401104" width="87.065" height="88.114" transform="translate(0)" fill="none"/>
      </g>
      <g id="g3705" transform="translate(4.836 691.317)">
        <g id="g3707" transform="translate(0 -682.665)">
          <g id="g3709" clip-path="url(#clip-path-2)">
            <g id="g3715" transform="translate(0 0)">
              <path id="path3717" d="M-461.862-459.58H-474.1a1.51,1.51,0,0,1-1.51-1.51,1.51,1.51,0,0,1,1.51-1.51h12.235a1.512,1.512,0,0,0,1.51-1.51v-51.356a1.512,1.512,0,0,0-1.51-1.51h-68.273a1.512,1.512,0,0,0-1.51,1.51v51.356a1.512,1.512,0,0,0,1.51,1.51H-517.9a1.51,1.51,0,0,1,1.51,1.51,1.51,1.51,0,0,1-1.51,1.51h-12.235a4.537,4.537,0,0,1-4.531-4.531v-51.356A4.537,4.537,0,0,1-530.135-520h68.273a4.537,4.537,0,0,1,4.531,4.531v51.356A4.537,4.537,0,0,1-461.862-459.58Z" transform="translate(534.667 519.999)" fill="#fff"/>
            </g>
            <g id="g3719" transform="translate(0.453 6.041)">
              <path id="path3721" d="M-642.359-4.27h-17.672a1.51,1.51,0,0,1-1.51-1.51,1.51,1.51,0,0,1,1.51-1.51h17.672a4.536,4.536,0,0,0,4.531-4.531,1.51,1.51,0,0,1,1.51-1.51H-586.6a1.51,1.51,0,0,1,1.51,1.51,1.51,1.51,0,0,1-1.51,1.51h-48.36A7.566,7.566,0,0,1-642.359-4.27Z" transform="translate(661.542 13.333)" fill="#fff"/>
            </g>
            <g id="g3723" transform="translate(19.635 7.552)">
              <path id="path3725" fill="#fff"/>
            </g>
            <g id="g3727" transform="translate(13.593 7.552)">
              <path id="path3729" fill="#fff"/>
            </g>
            <g id="g3731" transform="translate(7.551 7.552)">
              <path id="path3733" fill="#fff"/>
            </g>
            <g id="g3735" transform="translate(33.381 66.763)">
              <path id="path3737" d="M-41.38-69.427a5.293,5.293,0,0,1-5.287-5.287A5.293,5.293,0,0,1-41.38-80a5.293,5.293,0,0,1,5.287,5.287A5.293,5.293,0,0,1-41.38-69.427Zm0-7.552a2.268,2.268,0,0,0-2.266,2.266,2.268,2.268,0,0,0,2.266,2.266,2.268,2.268,0,0,0,2.266-2.266A2.268,2.268,0,0,0-41.38-76.979Z" transform="translate(46.667 80)" fill="#fff"/>
            </g>
            <g id="g3739" transform="translate(37.158 60.852)">
              <path id="path3741" d="M-11.823-4.835a1.51,1.51,0,0,1-1.51-1.51v-5.477a1.51,1.51,0,0,1,1.51-1.51,1.51,1.51,0,0,1,1.51,1.51v5.477A1.51,1.51,0,0,1-11.823-4.835Z" transform="translate(13.333 13.333)" fill="#fff"/>
            </g>
            <g id="g3743" transform="translate(20.703 70.539)">
              <path id="path3745" d="M.422-10.312H-11.823a1.51,1.51,0,0,1-1.51-1.51,1.51,1.51,0,0,1,1.51-1.51H.422a1.51,1.51,0,0,1,1.51,1.51A1.51,1.51,0,0,1,.422-10.312Z" transform="translate(13.333 13.333)" fill="#fff"/>
            </g>
            <g id="g3747" transform="translate(41.367 70.539)">
              <path id="path3749" d="M-107.665-10.312h-12.245a1.51,1.51,0,0,1-1.51-1.51,1.51,1.51,0,0,1,1.51-1.51h12.245a1.51,1.51,0,0,1,1.51,1.51A1.51,1.51,0,0,1-107.665-10.312Z" transform="translate(121.42 13.333)" fill="#fff"/>
            </g>
            <g id="g3751" transform="translate(16.011 24.167)">
              <path id="path3753" d="M-355.469-120h36.252a4.537,4.537,0,0,1,4.531,4.532v6.042a4.513,4.513,0,0,1-1.157,3.021,4.514,4.514,0,0,1,1.157,3.021v6.042a4.513,4.513,0,0,1-1.157,3.021,4.513,4.513,0,0,1,1.157,3.021v6.042a4.537,4.537,0,0,1-4.531,4.531h-36.252A4.537,4.537,0,0,1-360-85.259V-91.3a4.513,4.513,0,0,1,1.157-3.021A4.513,4.513,0,0,1-360-97.342v-6.042a4.514,4.514,0,0,1,1.157-3.021A4.513,4.513,0,0,1-360-109.426v-6.042A4.537,4.537,0,0,1-355.469-120Zm34.741,13.594a1.51,1.51,0,0,1,1.51-1.51,1.512,1.512,0,0,0,1.51-1.51v-6.042a1.512,1.512,0,0,0-1.51-1.511h-36.252a1.512,1.512,0,0,0-1.51,1.511v6.042a1.512,1.512,0,0,0,1.51,1.51,1.51,1.51,0,0,1,1.51,1.51,1.51,1.51,0,0,1-1.51,1.51,1.512,1.512,0,0,0-1.51,1.511v6.042a1.512,1.512,0,0,0,1.51,1.51,1.51,1.51,0,0,1,1.51,1.51,1.51,1.51,0,0,1-1.51,1.51,1.512,1.512,0,0,0-1.51,1.51v6.042a1.512,1.512,0,0,0,1.51,1.51h36.252a1.512,1.512,0,0,0,1.51-1.51V-91.3a1.512,1.512,0,0,0-1.51-1.51,1.511,1.511,0,0,1-1.51-1.51,1.51,1.51,0,0,1,1.51-1.51,1.512,1.512,0,0,0,1.51-1.51v-6.042a1.512,1.512,0,0,0-1.51-1.511A1.51,1.51,0,0,1-320.728-106.405Z" transform="translate(360 120)" fill="#fff"/>
            </g>
            <g id="g3755" transform="translate(19.032 36.251)">
              <path id="path3757" d="M24.429-10.312H-11.823a1.51,1.51,0,0,1-1.51-1.51,1.51,1.51,0,0,1,1.51-1.51H24.429a1.51,1.51,0,0,1,1.51,1.51A1.51,1.51,0,0,1,24.429-10.312Z" transform="translate(13.333 13.333)" fill="#fff"/>
            </g>
            <g id="g3759" transform="translate(19.032 48.335)">
              <path id="path3761" d="M24.429-10.312H-11.823a1.51,1.51,0,0,1-1.51-1.51,1.51,1.51,0,0,1,1.51-1.51H24.429a1.51,1.51,0,0,1,1.51,1.51A1.51,1.51,0,0,1,24.429-10.312Z" transform="translate(13.333 13.333)" fill="#fff"/>
            </g>
            <g id="g3763" transform="translate(25.072 31.72)">
              <path id="path3765" fill="#fff"/>
            </g>
            <g id="g3767" transform="translate(31.869 31.72)">
              <path id="path3769" fill="#fff"/>
            </g>
            <g id="g3771" transform="translate(38.666 31.72)">
              <path id="path3773" fill="#fff"/>
            </g>
            <g id="g3775" transform="translate(25.072 43.803)">
              <path id="path3777" fill="#fff"/>
            </g>
            <g id="g3779" transform="translate(31.869 43.803)">
              <path id="path3781" fill="#fff"/>
            </g>
            <g id="g3783" transform="translate(38.666 43.803)">
              <path id="path3785" fill="#fff"/>
            </g>
            <g id="g3787" transform="translate(25.073 55.887)">
              <path id="path3789" fill="#fff"/>
            </g>
            <g id="g3791" transform="translate(31.87 55.887)">
              <path id="path3793" fill="#fff"/>
            </g>
            <g id="g3795" transform="translate(38.667 55.887)">
              <path id="path3797" fill="#fff"/>
            </g>
            <g id="g3799" transform="translate(8.458 18.125)">
              <path id="path3801" d="M-461.09-311.793a1.511,1.511,0,0,1-1.51-1.51V-350.31h-54.377V-313.3a1.511,1.511,0,0,1-1.51,1.51A1.511,1.511,0,0,1-520-313.3v-38.517a1.51,1.51,0,0,1,1.51-1.51h57.4a1.51,1.51,0,0,1,1.51,1.51V-313.3A1.511,1.511,0,0,1-461.09-311.793Z" transform="translate(519.999 353.331)" fill="#fff"/>
            </g>
          </g>
        </g>
        <path id="Trazado_1032916" data-name="Trazado 1032916" d="M198.953,319.949H215.06v2.7H198.953Zm0,0" transform="translate(-160.285 -947.596)" fill="#fff"/>
        <path id="Trazado_1032917" data-name="Trazado 1032917" d="M198.953,319.949H215.06v2.7H198.953Zm0,0" transform="translate(-160.285 -959.232)" fill="#fff"/>
        <path id="Trazado_1032918" data-name="Trazado 1032918" d="M198.953,319.949H215.06v2.7H198.953Zm0,0" transform="translate(-160.285 -972.322)" fill="#fff"/>
      </g>
    </g>
  </g>
</svg>
