<svg xmlns="http://www.w3.org/2000/svg" xmlns:xlink="http://www.w3.org/1999/xlink" width="150" height="150" viewBox="0 0 150 150">
  <defs>
    <clipPath id="clip-path">
      <rect id="Rectángulo_455533" data-name="Rectángulo 455533" width="149.812" height="143.185" fill="#7a4f1e"/>
    </clipPath>
    <clipPath id="clip-path-2">
      <path id="path3285" d="M0-682.665H82.519v82.519H0Z" transform="translate(0 682.665)" fill="#fff"/>
    </clipPath>
  </defs>
  <g id="Grupo_1186618" data-name="Grupo 1186618" transform="translate(-305.059 -10093)">
    <g id="Grupo_1179079" data-name="Grupo 1179079" transform="translate(-78.59 1694.097)">
      <circle id="Elipse_13674" data-name="Elipse 13674" cx="65.5" cy="65.5" r="65.5" transform="translate(393.649 8407.903)" fill="#7a4f1e"/>
      <g id="Grupo_1179062" data-name="Grupo 1179062" transform="translate(383.649 8398.903)">
        <rect id="Rectángulo_455531" data-name="Rectángulo 455531" width="150" height="150" transform="translate(0 0)" fill="none"/>
        <g id="Grupo_1179061" data-name="Grupo 1179061" transform="translate(0.094 3.9)">
          <path id="Trazado_998445" data-name="Trazado 998445" d="M127.367,99.1H96.727l4.153-7.745h30.64Z" transform="translate(13.418 14.697)" fill="#7a4f1e"/>
          <path id="Trazado_998446" data-name="Trazado 998446" d="M2.518,86.893,0,92.019h33.78L36.3,86.893Z" transform="translate(0 14.142)" fill="#7a4f1e"/>
          <path id="Trazado_998447" data-name="Trazado 998447" d="M131.16,33.711H98.809l2.537-5.745H133.7Z" transform="translate(13.977 4.539)" fill="#7a4f1e"/>
          <path id="Trazado_998448" data-name="Trazado 998448" d="M45.981,13.965H3.483L6.02,8.221h42.5Z" transform="translate(0.935 2.207)" fill="#7a4f1e"/>
          <g id="Grupo_1179060" data-name="Grupo 1179060" transform="translate(0)">
            <g id="Grupo_1179059" data-name="Grupo 1179059" clip-path="url(#clip-path)">
              <path id="Trazado_998449" data-name="Trazado 998449" d="M74.461,126.768A63.317,63.317,0,0,1,12.49,49.237H4.026A71.853,71.853,0,0,0,130.42,108.291H119.338a63.5,63.5,0,0,1-44.877,18.477" transform="translate(0.445 8.185)" fill="#7a4f1e"/>
              <path id="Trazado_998450" data-name="Trazado 998450" d="M110.835,89.568h9.4c.755-1.5,1.441-3.033,2.091-4.588h-9.039c-.76,1.565-1.573,3.1-2.454,4.588" transform="translate(18.887 14.126)" fill="#7a4f1e"/>
              <path id="Trazado_998451" data-name="Trazado 998451" d="M145.839,71.593A71.893,71.893,0,0,0,5.373,50.3h8.722A63.623,63.623,0,0,1,137.577,71.593a62.852,62.852,0,0,1-4.591,23.629h8.808a71.048,71.048,0,0,0,4.045-23.629" transform="translate(0.916)" fill="#7a4f1e"/>
              <path id="Trazado_998452" data-name="Trazado 998452" d="M108.562,81.649v3.885h5.115q.927-1.909,1.726-3.885Z" transform="translate(18.499 13.573)" fill="#7a4f1e"/>
              <path id="Trazado_998453" data-name="Trazado 998453" d="M129.252,81.649h-7.1q-.693,1.97-1.495,3.885h8.6Z" transform="translate(20.56 13.573)" fill="#7a4f1e"/>
            </g>
          </g>
          <path id="Trazado_998444" data-name="Trazado 998444" d="M3.8,37.025,0,44.77H23l3.805-7.745Z" transform="translate(0 5.957)" fill="#7a4f1e"/>
        </g>
      </g>
    </g>
    <g id="Grupo_1179080" data-name="Grupo 1179080" transform="translate(336.059 10124)">
      <g id="Grupo_1099618" data-name="Grupo 1099618" transform="translate(0 0)">
        <rect id="Rectángulo_401104" data-name="Rectángulo 401104" width="87.065" height="88.114" transform="translate(0)" fill="none"/>
      </g>
      <g id="Grupo_1186620" data-name="Grupo 1186620" transform="translate(-4042.765 7733.285)">
        <g id="g3279" transform="translate(4046.506 -7729.062)">
          <g id="g3281" transform="translate(0 0)">
            <g id="g3283" clip-path="url(#clip-path-2)">
              <g id="g3289" transform="translate(4.19 0)">
                <path id="path3291" d="M-366.593-486.816h-41.9a4.841,4.841,0,0,1-4.835-4.835V-564.5a4.841,4.841,0,0,1,4.835-4.835h41.9a4.841,4.841,0,0,1,4.835,4.835v23.692a1.612,1.612,0,0,1-1.612,1.612,1.612,1.612,0,0,1-1.612-1.612V-564.5a1.613,1.613,0,0,0-1.612-1.612h-41.9a1.613,1.613,0,0,0-1.612,1.612v72.849a1.613,1.613,0,0,0,1.612,1.612h41.9a1.614,1.614,0,0,0,1.612-1.612v-8.864a1.612,1.612,0,0,1,1.612-1.612,1.612,1.612,0,0,1,1.612,1.612v8.864A4.84,4.84,0,0,1-366.593-486.816Z" transform="translate(413.332 569.335)" fill="#fff"/>
              </g>
              <g id="g3293" transform="translate(4.996 6.446)">
                <path id="path3295" d="M18.095-6.887H5.2A4.843,4.843,0,0,1,.642-10.11H-11.722a1.612,1.612,0,0,1-1.612-1.612,1.612,1.612,0,0,1,1.612-1.612h13.7a1.612,1.612,0,0,1,1.612,1.612A1.613,1.613,0,0,0,5.2-10.11H18.095a1.613,1.613,0,0,0,1.612-1.612,1.612,1.612,0,0,1,1.612-1.612h13.7a1.612,1.612,0,0,1,1.612,1.612,1.612,1.612,0,0,1-1.612,1.612H22.654A4.843,4.843,0,0,1,18.095-6.887Z" transform="translate(13.333 13.333)" fill="#fff"/>
              </g>
              <g id="g3297" transform="translate(4.996 72.848)">
                <path id="path3299" d="M35.018-10.11H-11.722a1.612,1.612,0,0,1-1.612-1.612,1.612,1.612,0,0,1,1.612-1.612H35.018a1.612,1.612,0,0,1,1.612,1.612A1.612,1.612,0,0,1,35.018-10.11Z" transform="translate(13.333 13.333)" fill="#fff"/>
              </g>
              <g id="g3301" transform="translate(29.977 27.721)">
                <path id="path3303" d="M-355.164-120h38.681a4.841,4.841,0,0,1,4.835,4.835v6.447a4.816,4.816,0,0,1-1.234,3.223,4.816,4.816,0,0,1,1.234,3.223v6.447a4.816,4.816,0,0,1-1.234,3.223,4.816,4.816,0,0,1,1.234,3.223v6.447a4.841,4.841,0,0,1-4.835,4.835h-38.681A4.841,4.841,0,0,1-360-82.931v-6.447a4.816,4.816,0,0,1,1.234-3.223A4.816,4.816,0,0,1-360-95.824v-6.447a4.816,4.816,0,0,1,1.234-3.223A4.816,4.816,0,0,1-360-108.718v-6.447A4.841,4.841,0,0,1-355.164-120Zm37.069,14.505a1.612,1.612,0,0,1,1.612-1.612,1.614,1.614,0,0,0,1.612-1.612v-6.447a1.614,1.614,0,0,0-1.612-1.612h-38.681a1.614,1.614,0,0,0-1.612,1.612v6.447a1.614,1.614,0,0,0,1.612,1.612,1.612,1.612,0,0,1,1.612,1.612,1.612,1.612,0,0,1-1.612,1.612,1.614,1.614,0,0,0-1.612,1.612v6.447a1.614,1.614,0,0,0,1.612,1.612,1.612,1.612,0,0,1,1.612,1.612,1.612,1.612,0,0,1-1.612,1.612,1.614,1.614,0,0,0-1.612,1.612v6.447a1.614,1.614,0,0,0,1.612,1.612h38.681a1.614,1.614,0,0,0,1.612-1.612v-6.447a1.614,1.614,0,0,0-1.612-1.612,1.612,1.612,0,0,1-1.612-1.612,1.612,1.612,0,0,1,1.612-1.612,1.614,1.614,0,0,0,1.612-1.612v-6.447a1.614,1.614,0,0,0-1.612-1.612A1.612,1.612,0,0,1-318.095-105.494Z" transform="translate(359.999 120)" fill="#fff"/>
              </g>
              <g id="g3305" transform="translate(33.201 40.614)">
                <path id="path3307" d="M26.959-10.11H-11.722a1.612,1.612,0,0,1-1.612-1.612,1.612,1.612,0,0,1,1.612-1.612H26.959a1.612,1.612,0,0,1,1.612,1.612A1.612,1.612,0,0,1,26.959-10.11Z" transform="translate(13.333 13.333)" fill="#fff"/>
              </g>
              <g id="g3309" transform="translate(33.201 53.508)">
                <path id="path3311" d="M26.959-10.11H-11.722a1.612,1.612,0,0,1-1.612-1.612,1.612,1.612,0,0,1,1.612-1.612H26.959a1.612,1.612,0,0,1,1.612,1.612A1.612,1.612,0,0,1,26.959-10.11Z" transform="translate(13.333 13.333)" fill="#fff"/>
              </g>
              <g id="g3313" transform="translate(10.637 16.116)">
                <path id="path3315" d="M-146.52-352.383h-18.534a1.612,1.612,0,0,1-1.612-1.612v-47.062a1.612,1.612,0,0,1,1.612-1.612H-129.6a1.612,1.612,0,0,1,1.612,1.612v10.8a1.612,1.612,0,0,1-1.612,1.612,1.612,1.612,0,0,1-1.612-1.612v-9.187h-32.234v43.838h16.923a1.612,1.612,0,0,1,1.612,1.612A1.612,1.612,0,0,1-146.52-352.383Z" transform="translate(166.666 402.668)" fill="#fff"/>
              </g>
              <g id="g3317" transform="translate(39.645 35.779)">
                <path id="path3319" fill="#fff"/>
              </g>
              <g id="g3321" transform="translate(46.898 35.779)">
                <path id="path3323" fill="#fff"/>
              </g>
              <g id="g3325" transform="translate(54.15 35.779)">
                <path id="path3327" fill="#fff"/>
              </g>
              <g id="g3329" transform="translate(39.645 48.673)">
                <path id="path3331" fill="#fff"/>
              </g>
              <g id="g3333" transform="translate(46.898 48.673)">
                <path id="path3335" fill="#fff"/>
              </g>
              <g id="g3337" transform="translate(54.15 48.673)">
                <path id="path3339" fill="#fff"/>
              </g>
              <g id="g3341" transform="translate(39.646 61.566)">
                <path id="path3343" fill="#fff"/>
              </g>
              <g id="g3345" transform="translate(46.899 61.566)">
                <path id="path3347" fill="#fff"/>
              </g>
              <g id="g3349" transform="translate(54.152 61.566)">
                <path id="path3351" fill="#fff"/>
              </g>
            </g>
          </g>
        </g>
        <path id="Trazado_1032913" data-name="Trazado 1032913" d="M198.953,319.949h17.212v2.888H198.953Zm0,0" transform="translate(3901.167 -8014.937)" fill="#fff"/>
        <path id="Trazado_1032914" data-name="Trazado 1032914" d="M198.953,319.949h17.212v2.888H198.953Zm0,0" transform="translate(3901.167 -8002.502)" fill="#fff"/>
        <path id="Trazado_1032915" data-name="Trazado 1032915" d="M198.953,319.949h17.212v2.888H198.953Zm0,0" transform="translate(3901.167 -7988.514)" fill="#fff"/>
      </g>
    </g>
  </g>
</svg>
