<svg xmlns="http://www.w3.org/2000/svg" width="149.854" height="60.394" viewBox="0 0 149.854 60.394">
  <g id="Grupo_1186514" data-name="Grupo 1186514" transform="translate(-1174.479 -500.106)">
    <path id="Trazado_998133" data-name="Trazado 998133" d="M49.7-29.171h105.16L110.165,18.695H5Z" transform="translate(1169.474 541.806)" fill="#19538d"/>
    <g id="codigo_1_" data-name="codigo (1)" transform="translate(1222.621 498.106)">
      <path id="Trazado_1030327" data-name="Trazado 1030327" d="M55.894,15.473V9.7A7.714,7.714,0,0,0,48.2,2H9.7A7.714,7.714,0,0,0,2,9.7v5.777ZM19.33,7.777a1.92,1.92,0,1,1-1.368.556,1.92,1.92,0,0,1,1.368-.556Zm-7.714,0A1.92,1.92,0,1,1,9.7,9.7,1.92,1.92,0,0,1,11.617,7.777Z" fill="#fff" fill-rule="evenodd"/>
      <path id="Trazado_1030328" data-name="Trazado 1030328" d="M2,12.29V41.157a7.714,7.714,0,0,0,7.7,7.7H48.2a7.714,7.714,0,0,0,7.7-7.7V12.29Zm33.8,8.859a1.937,1.937,0,1,1,3.082-2.324l3.638,4.766a1.954,1.954,0,0,1,0,2.307l-3.638,4.867A1.937,1.937,0,0,1,35.8,28.441l2.762-3.655ZM25.461,28.93,29.082,19.3a1.927,1.927,0,0,1,3.6,1.364l-3.638,9.667a1.92,1.92,0,1,1-3.587-1.347ZM19.414,41.157h-7.8a1.937,1.937,0,0,1,0-3.857h7.8a1.937,1.937,0,1,1,0,3.857Zm2.678-12.716a1.937,1.937,0,0,1-3.082,2.324l-3.638-4.817a1.954,1.954,0,0,1,0-2.307l3.638-4.817a1.937,1.937,0,1,1,3.082,2.324L19.33,24.787ZM46.277,41.157H27.027a1.937,1.937,0,1,1,0-3.857h19.25a1.937,1.937,0,0,1,0,3.857Z" transform="translate(0 7.04)" fill="#fff" fill-rule="evenodd"/>
    </g>
  </g>
</svg>
