<svg xmlns="http://www.w3.org/2000/svg" xmlns:xlink="http://www.w3.org/1999/xlink" width="133.347" height="133.346" viewBox="0 0 133.347 133.346">
  <defs>
    <clipPath id="clip-path">
      <rect id="Rectángulo_455533" data-name="Rectángulo 455533" width="133.346" height="127.904" fill="#19538d"/>
    </clipPath>
  </defs>
  <g id="Grupo_1186571" data-name="Grupo 1186571" transform="translate(0.295 -0.228)">
    <ellipse id="Elipse_13674" data-name="Elipse 13674" cx="56.894" cy="56.894" rx="56.894" ry="56.894" transform="translate(9.483 10.006)" fill="#fff"/>
    <g id="Grupo_1179062" data-name="Grupo 1179062" transform="translate(-0.295 0.228)">
      <rect id="Rectángulo_455531" data-name="Rectángulo 455531" width="133.346" height="133.346" transform="translate(0 0)" fill="none"/>
      <g id="Grupo_1179061" data-name="Grupo 1179061" transform="translate(0 3.126)">
        <path id="Trazado_998445" data-name="Trazado 998445" d="M121.892,97.715H96.727l3.411-6.361H125.3Z" transform="translate(4.04 3.816)" fill="#62249e"/>
        <path id="Trazado_998446" data-name="Trazado 998446" d="M2.068,86.893,0,91.1H27.745l2.069-4.21Z" transform="translate(0 3.629)" fill="#19538d"/>
        <path id="Trazado_998447" data-name="Trazado 998447" d="M125.38,32.685H98.809l2.084-4.718h26.57Z" transform="translate(4.127 1.168)" fill="#19538d"/>
        <path id="Trazado_998448" data-name="Trazado 998448" d="M38.387,12.939H3.483L5.567,8.221h34.9Z" transform="translate(0.146 0.343)" fill="#19538d"/>
        <g id="Grupo_1179060" data-name="Grupo 1179060" transform="translate(0)">
          <g id="Grupo_1179059" data-name="Grupo 1179059" clip-path="url(#clip-path)">
            <path id="Trazado_998449" data-name="Trazado 998449" d="M66.564,118.494A56.579,56.579,0,0,1,11.4,49.237H3.87a63.948,63.948,0,0,0,112.5,52.752h-9.865a56.416,56.416,0,0,1-39.945,16.5" transform="translate(0.109 2.057)" fill="#19538d"/>
            <path id="Trazado_998450" data-name="Trazado 998450" d="M110.835,89.078H119.2c.672-1.338,1.282-2.71,1.862-4.1H113.02c-.676,1.4-1.4,2.767-2.185,4.1" transform="translate(4.629 3.549)" fill="#19538d"/>
            <path id="Trazado_998451" data-name="Trazado 998451" d="M130.4,63.952A63.962,63.962,0,0,0,5.373,44.932h7.763A56.6,56.6,0,1,1,118.96,85.059h7.84a63.67,63.67,0,0,0,3.6-21.107" transform="translate(0.224)" fill="#19538d"/>
            <path id="Trazado_998452" data-name="Trazado 998452" d="M108.562,81.649v3.47h4.553q.825-1.7,1.537-3.47Z" transform="translate(4.534 3.41)" fill="#19538d"/>
            <path id="Trazado_998453" data-name="Trazado 998453" d="M128.307,81.649h-6.321q-.617,1.76-1.33,3.47h7.652Z" transform="translate(5.04 3.41)" fill="#19538d"/>
          </g>
        </g>
        <path id="Trazado_998444" data-name="Trazado 998444" d="M3.125,37.025,0,43.386H18.891l3.125-6.361Z" transform="translate(0 1.546)" fill="#62249e"/>
      </g>
    </g>
    <g id="Grupo_1177669" data-name="Grupo 1177669" transform="translate(30.818 30.451)">
      <g id="Grupo_1099618" data-name="Grupo 1099618" transform="translate(0 0)">
        <rect id="Rectángulo_401104" data-name="Rectángulo 401104" width="71.028" height="71.883" transform="translate(0)" fill="none"/>
      </g>
      <g id="bloqueado" transform="translate(2.541 4.477)">
        <path id="Línea_3244" data-name="Línea 3244" d="M45.888-5.568H-6.534A.966.966,0,0,1-7.5-6.534.966.966,0,0,1-6.534-7.5H45.888a.966.966,0,0,1,.966.966A.966.966,0,0,1,45.888-5.568Z" transform="translate(7.5 22.956)" fill="#19538d"/>
        <path id="Rectángulo_458970" data-name="Rectángulo 458970" d="M-6.534-7.5H22.7a.966.966,0,0,1,.966.966V-2.67A.966.966,0,0,1,22.7-1.7H-6.534A.966.966,0,0,1-7.5-2.67V-6.534A.966.966,0,0,1-6.534-7.5ZM21.738-5.568H-5.568v1.932H21.738Z" transform="translate(26.82 26.82)" fill="#19538d"/>
        <path id="Elipse_13712" data-name="Elipse 13712" d="M-4.6-7.5A2.9,2.9,0,0,1-1.7-4.6,2.9,2.9,0,0,1-4.6-1.7,2.9,2.9,0,0,1-7.5-4.6,2.9,2.9,0,0,1-4.6-7.5Zm0,3.864A.967.967,0,0,0-3.636-4.6.967.967,0,0,0-4.6-5.568a.967.967,0,0,0-.966.966A.967.967,0,0,0-4.6-3.636Z" transform="translate(19.092 26.82)" fill="#19538d"/>
        <path id="Elipse_13713" data-name="Elipse 13713" d="M-4.6-7.5A2.9,2.9,0,0,1-1.7-4.6,2.9,2.9,0,0,1-4.6-1.7,2.9,2.9,0,0,1-7.5-4.6,2.9,2.9,0,0,1-4.6-7.5Zm0,3.864A.967.967,0,0,0-3.636-4.6.967.967,0,0,0-4.6-5.568a.967.967,0,0,0-.966.966A.967.967,0,0,0-4.6-3.636Z" transform="translate(11.364 26.82)" fill="#19538d"/>
        <path id="Trazado_1031367" data-name="Trazado 1031367" d="M439.9,87.306a2.9,2.9,0,0,1-2.9-2.9V76.422a.966.966,0,0,1,1.932,0v7.986a.966.966,0,1,0,1.932,0V60.966a.966.966,0,0,1,1.932,0V84.408A2.9,2.9,0,0,1,439.9,87.306Z" transform="translate(-380.714 -52.272)" fill="#19538d"/>
        <path id="Trazado_1031368" data-name="Trazado 1031368" d="M83.388,21.252a.966.966,0,0,1-.966-.966V1.932H31.932v2.9A.966.966,0,1,1,30,4.83V.966A.966.966,0,0,1,30.966,0H83.388a.966.966,0,0,1,.966.966v19.32A.966.966,0,0,1,83.388,21.252Z" transform="translate(-26.136)" fill="#19538d"/>
        <path id="Trazado_1031369" data-name="Trazado 1031369" d="M445.694,73.524a.966.966,0,0,1-.966-.966V61.932h-6.762a.966.966,0,0,1,0-1.932h7.728a.966.966,0,0,1,.966.966V72.558A.966.966,0,0,1,445.694,73.524Z" transform="translate(-380.714 -52.272)" fill="#19538d"/>
        <path id="Línea_3245" data-name="Línea 3245" d="M45.888-5.568H-6.534A.966.966,0,0,1-7.5-6.534.966.966,0,0,1-6.534-7.5H45.888a.966.966,0,0,1,.966.966A.966.966,0,0,1,45.888-5.568Z" transform="translate(7.5 34.548)" fill="#19538d"/>
        <path id="Línea_3246" data-name="Línea 3246" d="M-6.534,6.024A.966.966,0,0,1-7.5,5.058V-6.534A.966.966,0,0,1-6.534-7.5a.966.966,0,0,1,.966.966V5.058A.966.966,0,0,1-6.534,6.024Z" transform="translate(48.33 11.364)" fill="#19538d"/>
        <path id="Trazado_1031370" data-name="Trazado 1031370" d="M59.184,65.034a6.77,6.77,0,0,1-6.762-6.762V31.932H1.932v26.34a4.836,4.836,0,0,0,4.83,4.83h10.5a.966.966,0,1,1,0,1.932H6.762A6.77,6.77,0,0,1,0,58.272V30.966A.966.966,0,0,1,.966,30H53.388a.966.966,0,0,1,.966.966V58.272a4.83,4.83,0,0,0,9.66,0V50.286a.966.966,0,0,1,1.932,0v7.986A6.77,6.77,0,0,1,59.184,65.034Z" transform="translate(0 -26.136)" fill="#19538d"/>
        <path id="Línea_3247" data-name="Línea 3247" d="M15.555-5.568H-6.534A.966.966,0,0,1-7.5-6.534.966.966,0,0,1-6.534-7.5H15.555a.966.966,0,0,1,.966.966A.966.966,0,0,1,15.555-5.568Z" transform="translate(43.629 44.466)" fill="#19538d"/>
        <path id="Trazado_1031371" data-name="Trazado 1031371" d="M121.165,355.184H101.33a4.836,4.836,0,0,1-4.83-4.83V336.83a4.836,4.836,0,0,1,4.83-4.83h19.835a4.836,4.836,0,0,1,4.83,4.83v13.524A4.836,4.836,0,0,1,121.165,355.184ZM101.33,333.932a2.9,2.9,0,0,0-2.9,2.9v13.524a2.9,2.9,0,0,0,2.9,2.9h19.835a2.9,2.9,0,0,0,2.9-2.9V336.83a2.9,2.9,0,0,0-2.9-2.9Z" transform="translate(-84.071 -289.238)" fill="#19538d"/>
        <path id="Trazado_1031372" data-name="Trazado 1031372" d="M184.864,377a3.864,3.864,0,0,1,2.9,6.42v2.274a2.9,2.9,0,1,1-5.8,0V383.42a3.864,3.864,0,0,1,2.9-6.42Zm0,9.66a.967.967,0,0,0,.966-.966V383.03a.966.966,0,0,1,.283-.683l.117-.117a1.932,1.932,0,1,0-2.732,0l.117.117a.966.966,0,0,1,.283.683v2.664A.967.967,0,0,0,184.864,386.66Z" transform="translate(-157.687 -328.442)" fill="#19538d"/>
        <path id="Trazado_1031373" data-name="Trazado 1031373" d="M147.3,227.646a.966.966,0,0,1-.966-.966v-5.8a8.952,8.952,0,1,0-17.9,0v5.8a.966.966,0,1,1-1.932,0v-5.8a10.884,10.884,0,1,1,21.767,0v5.8A.966.966,0,0,1,147.3,227.646Z" transform="translate(-110.207 -182.952)" fill="#19538d"/>
        <path id="Trazado_1031374" data-name="Trazado 1031374" d="M182.194,268.592a.966.966,0,0,1-.966-.966v-5.8a2.9,2.9,0,1,0-5.8,0v5.8a.966.966,0,0,1-1.932,0v-5.8a4.83,4.83,0,0,1,9.66,0v5.8A.966.966,0,0,1,182.194,268.592Z" transform="translate(-151.153 -223.898)" fill="#19538d"/>
        <path id="Línea_3248" data-name="Línea 3248" d="M1.194-5.568H-6.534A.966.966,0,0,1-7.5-6.534.966.966,0,0,1-6.534-7.5H1.194a.966.966,0,0,1,.966.966A.966.966,0,0,1,1.194-5.568Z" transform="translate(29.847 44.466)" fill="#19538d"/>
      </g>
    </g>
  </g>
</svg>
