<svg xmlns="http://www.w3.org/2000/svg" xmlns:xlink="http://www.w3.org/1999/xlink" width="129" height="127" viewBox="0 0 129 127">
  <defs>
    <clipPath id="clip-path">
      <rect id="Rectángulo_454807" data-name="Rectángulo 454807" width="129" height="127" transform="translate(399.059 5904)" fill="#9ecfff"/>
    </clipPath>
  </defs>
  <g id="Grupo_1186616" data-name="Grupo 1186616" transform="translate(-409 -2223)">
    <g id="Grupo_1186603" data-name="Grupo 1186603" transform="translate(9.941 -2477)">
      <g id="Grupo_1177492" data-name="Grupo 1177492" transform="translate(0 -1204)">
        <rect id="Rectángulo_454806" data-name="Rectángulo 454806" width="129" height="127" transform="translate(399.059 5904)" fill="#9ecfff"/>
        <path id="Rectángulo_454808" data-name="Rectángulo 454808" d="M0,0H79A12,12,0,0,1,91,12V91a0,0,0,0,1,0,0H12A12,12,0,0,1,0,79V0A0,0,0,0,1,0,0Z" transform="translate(418.059 5922)" fill="#fff"/>
      </g>
      <path id="Trazado_998457" data-name="Trazado 998457" d="M21.193,13.724H3.483l2.43-5.5h17.71Z" transform="translate(406.088 4714.021)" fill="#fff"/>
      <path id="Trazado_998459" data-name="Trazado 998459" d="M21.193,13.724H3.483l2.43-5.5h17.71Z" transform="translate(497.088 4790.021)" fill="#fff"/>
      <path id="Trazado_998458" data-name="Trazado 998458" d="M21.193,13.724H3.483l2.43-5.5h17.71Z" transform="translate(401.088 4719.524)" fill="#9ecfff"/>
      <path id="Trazado_998461" data-name="Trazado 998461" d="M18.607,11.366H3.483L4.872,8.221H20Z" transform="translate(494.518 4795.524)" fill="#9ecfff"/>
      <path id="Trazado_998462" data-name="Trazado 998462" d="M18.607,11.366H3.483L4.872,8.221H20Z" transform="translate(497.088 4734.779)" fill="#9ecfff"/>
      <path id="Trazado_998463" data-name="Trazado 998463" d="M18.607,11.366H3.483L4.872,8.221H20Z" transform="translate(402.902 4780.779)" fill="#9ecfff"/>
    </g>
    <g id="carpeta" transform="translate(377.915 2252.88)">
      <path id="Rectángulo_459769" data-name="Rectángulo 459769" d="M-8.663-10H32.748a1.337,1.337,0,0,1,1.337,1.337V2.584a1.337,1.337,0,0,1-1.337,1.337H-8.663A1.337,1.337,0,0,1-10,2.584V-8.663A1.337,1.337,0,0,1-8.663-10ZM31.411-7.325H-7.325V1.246H31.411Z" transform="translate(83.228 10)" fill="#19538d"/>
      <path id="Trazado_1032919" data-name="Trazado 1032919" d="M133.928,32.789a1.337,1.337,0,0,1-1.337-1.337V2.675H93.855v25.5a1.337,1.337,0,1,1-2.675,0V1.337A1.337,1.337,0,0,1,92.517,0h41.411a1.337,1.337,0,0,1,1.337,1.337V31.451A1.337,1.337,0,0,1,133.928,32.789Z" transform="translate(-17.952 0)" fill="#19538d"/>
      <path id="Línea_3273" data-name="Línea 3273" transform="translate(87.16 6.961)" fill="#19538d"/>
      <path id="Línea_3274" data-name="Línea 3274" transform="translate(87.16 6.961)" fill="#19538d"/>
      <path id="Línea_3275" data-name="Línea 3275" transform="translate(81.359 6.961)" fill="#19538d"/>
      <path id="Línea_3276" data-name="Línea 3276" transform="translate(81.359 6.961)" fill="#19538d"/>
      <path id="Línea_3277" data-name="Línea 3277" transform="translate(92.961 6.961)" fill="#19538d"/>
      <path id="Línea_3278" data-name="Línea 3278" transform="translate(92.961 6.961)" fill="#19538d"/>
      <g id="Grupo_1186431" data-name="Grupo 1186431" transform="translate(70.457 18.908)">
        <path id="Trazado_1032920" data-name="Trazado 1032920" d="M168.357,155.648H147.741a1.337,1.337,0,0,1-1.128-.62l-1.687-2.652h-5.408a1.337,1.337,0,0,1-1.337-1.337V142.72a1.337,1.337,0,0,1,1.337-1.337h28.839a1.337,1.337,0,0,1,1.337,1.337v11.591A1.337,1.337,0,0,1,168.357,155.648Zm-19.882-2.675h18.544v-8.916H140.855V149.7h4.8a1.337,1.337,0,0,1,1.128.62Z" transform="translate(-129.123 -141.383)" fill="#19538d"/>
        <path id="Trazado_1032921" data-name="Trazado 1032921" d="M74.632,203.583H86.994a1.337,1.337,0,0,1,1.128.62l1.687,2.652h26.1a4.177,4.177,0,0,1,4.175,4.169v29.637a4.177,4.177,0,0,1-4.175,4.169H74.632a4.177,4.177,0,0,1-4.175-4.169V207.752A4.177,4.177,0,0,1,74.632,203.583Zm11.627,2.675H74.632a1.5,1.5,0,0,0-1.5,1.494v32.909a1.5,1.5,0,0,0,1.5,1.494H115.91a1.5,1.5,0,0,0,1.5-1.494V211.024a1.5,1.5,0,0,0-1.5-1.494H89.075a1.337,1.337,0,0,1-1.128-.62Z" transform="translate(-70.457 -195.265)" fill="#19538d"/>
        <path id="Rectángulo_459770" data-name="Rectángulo 459770" d="M-8.663-10H23.207a1.337,1.337,0,0,1,1.337,1.337V13.131a1.337,1.337,0,0,1-1.337,1.337H-8.663A1.337,1.337,0,0,1-10,13.131V-8.663A1.337,1.337,0,0,1-8.663-10ZM21.869-7.325H-7.325V11.794H21.869Z" transform="translate(17.542 28.18)" fill="#19538d"/>
        <g id="Grupo_1186430" data-name="Grupo 1186430" transform="translate(14.114 24.915)">
          <g id="Grupo_1186427" data-name="Grupo 1186427" transform="translate(8.04 0)">
            <path id="Línea_3279" data-name="Línea 3279" d="M-8.665,1A1.336,1.336,0,0,1-9.07.932a1.337,1.337,0,0,1-.87-1.68L-7.3-9.07a1.337,1.337,0,0,1,1.68-.87,1.337,1.337,0,0,1,.87,1.68L-7.39.063A1.338,1.338,0,0,1-8.665,1Z" transform="translate(10.003 10.003)" fill="#19538d"/>
          </g>
          <g id="Grupo_1186428" data-name="Grupo 1186428" transform="translate(16.274 0)">
            <path id="Trazado_1032922" data-name="Trazado 1032922" d="M299.011,338.678a1.338,1.338,0,0,1-1.157-2.007l2.058-3.562-2.046-3.4a1.337,1.337,0,0,1,2.292-1.378l2.452,4.078a1.337,1.337,0,0,1,.012,1.358l-2.452,4.245A1.337,1.337,0,0,1,299.011,338.678Z" transform="translate(-297.674 -327.681)" fill="#19538d"/>
          </g>
          <g id="Grupo_1186429" data-name="Grupo 1186429" transform="translate(0 0)">
            <path id="Trazado_1032923" data-name="Trazado 1032923" d="M179.781,338.678a1.337,1.337,0,0,1-1.159-.669l-2.452-4.245a1.337,1.337,0,0,1,.012-1.358l2.452-4.078a1.337,1.337,0,0,1,2.292,1.378l-2.046,3.4,2.058,3.562a1.338,1.338,0,0,1-1.157,2.007Z" transform="translate(-175.99 -327.68)" fill="#19538d"/>
          </g>
        </g>
      </g>
    </g>
  </g>
</svg>
