<svg xmlns="http://www.w3.org/2000/svg" xmlns:xlink="http://www.w3.org/1999/xlink" width="129" height="127" viewBox="0 0 129 127">
  <defs>
    <clipPath id="clip-path">
      <rect id="Rectángulo_454807" data-name="Rectángulo 454807" width="129" height="127" transform="translate(399.059 5904)" fill="#9ecfff"/>
    </clipPath>
  </defs>
  <g id="Grupo_1186613" data-name="Grupo 1186613" transform="translate(-409 -2734)">
    <g id="Grupo_1186606" data-name="Grupo 1186606" transform="translate(9.941 -1966)">
      <g id="Grupo_1177492" data-name="Grupo 1177492" transform="translate(0 -1204)">
        <rect id="Rectángulo_454806" data-name="Rectángulo 454806" width="129" height="127" transform="translate(399.059 5904)" fill="#9ecfff"/>
        <path id="Rectángulo_454808" data-name="Rectángulo 454808" d="M0,0H79A12,12,0,0,1,91,12V91a0,0,0,0,1,0,0H12A12,12,0,0,1,0,79V0A0,0,0,0,1,0,0Z" transform="translate(418.059 5922)" fill="#fff"/>
        <g id="Grupo_1177491" data-name="Grupo 1177491" transform="translate(13.443 -2497.801)">
          <g id="Grupo_1099776" data-name="Grupo 1099776" transform="translate(412.387 8428.781)">
            <g id="Grupo_1099618" data-name="Grupo 1099618" transform="translate(0 0)">
              <rect id="Rectángulo_401104" data-name="Rectángulo 401104" width="72.17" height="73.039" transform="translate(0)" fill="none"/>
            </g>
          </g>
        </g>
      </g>
      <path id="Trazado_998457" data-name="Trazado 998457" d="M21.193,13.724H3.483l2.43-5.5h17.71Z" transform="translate(406.088 4714.021)" fill="#fff"/>
      <path id="Trazado_998459" data-name="Trazado 998459" d="M21.193,13.724H3.483l2.43-5.5h17.71Z" transform="translate(497.088 4790.021)" fill="#fff"/>
      <path id="Trazado_998458" data-name="Trazado 998458" d="M21.193,13.724H3.483l2.43-5.5h17.71Z" transform="translate(401.088 4719.524)" fill="#9ecfff"/>
      <path id="Trazado_998461" data-name="Trazado 998461" d="M18.607,11.366H3.483L4.872,8.221H20Z" transform="translate(494.518 4795.524)" fill="#9ecfff"/>
      <path id="Trazado_998462" data-name="Trazado 998462" d="M18.607,11.366H3.483L4.872,8.221H20Z" transform="translate(497.088 4734.779)" fill="#9ecfff"/>
      <path id="Trazado_998463" data-name="Trazado 998463" d="M18.607,11.366H3.483L4.872,8.221H20Z" transform="translate(402.902 4780.779)" fill="#9ecfff"/>
    </g>
    <g id="archivo_1_" data-name="archivo (1)" transform="translate(425.405 2764.144)">
      <path id="Rectángulo_459769" data-name="Rectángulo 459769" d="M-8.693-10h29.3a1.307,1.307,0,0,1,1.307,1.307V9.541a1.307,1.307,0,0,1-1.307,1.307h-29.3A1.307,1.307,0,0,1-10,9.541V-8.693A1.307,1.307,0,0,1-8.693-10ZM19.3-7.386H-7.386V8.234H19.3Z" transform="translate(43.172 26.098)" fill="#19538d"/>
      <g id="Grupo_1186452" data-name="Grupo 1186452" transform="translate(39.505 21.519)">
        <g id="Grupo_1186449" data-name="Grupo 1186449" transform="translate(7.141 0)">
          <path id="Línea_3273" data-name="Línea 3273" d="M-8.7,0a1.306,1.306,0,0,1-.4-.062A1.307,1.307,0,0,1-9.941-1.7l2.349-7.39a1.307,1.307,0,0,1,1.641-.85A1.307,1.307,0,0,1-5.1-8.3L-7.45-.91A1.308,1.308,0,0,1-8.7,0Z" transform="translate(10.003 10.003)" fill="#19538d"/>
        </g>
        <g id="Grupo_1186450" data-name="Grupo 1186450" transform="translate(14.455 0)">
          <path id="Trazado_1032919" data-name="Trazado 1032919" d="M294.273,174.663a1.307,1.307,0,0,1-1.13-1.961l1.792-3.1-1.781-2.961a1.307,1.307,0,0,1,2.24-1.347l2.178,3.621a1.307,1.307,0,0,1,.012,1.328l-2.178,3.769A1.307,1.307,0,0,1,294.273,174.663Z" transform="translate(-292.967 -164.659)" fill="#19538d"/>
        </g>
        <g id="Grupo_1186451" data-name="Grupo 1186451" transform="translate(0 0)">
          <path id="Trazado_1032920" data-name="Trazado 1032920" d="M185.853,174.663a1.306,1.306,0,0,1-1.133-.653l-2.178-3.769a1.307,1.307,0,0,1,.012-1.328l2.178-3.621a1.307,1.307,0,0,1,2.24,1.347l-1.781,2.961,1.792,3.1a1.307,1.307,0,0,1-1.13,1.961Z" transform="translate(-182.367 -164.659)" fill="#19538d"/>
        </g>
      </g>
      <g id="Grupo_1186457" data-name="Grupo 1186457" transform="translate(18.027 0)">
        <g id="Grupo_1186455" data-name="Grupo 1186455" transform="translate(0 23.483)">
          <g id="Grupo_1186453" data-name="Grupo 1186453" transform="translate(52.269)">
            <path id="Línea_3274" data-name="Línea 3274" d="M-1.373-7.386h-7.32A1.307,1.307,0,0,1-10-8.693,1.307,1.307,0,0,1-8.693-10h7.32A1.307,1.307,0,0,1-.066-8.693,1.307,1.307,0,0,1-1.373-7.386Z" transform="translate(10 10)" fill="#19538d"/>
            <path id="Línea_3275" data-name="Línea 3275" d="M-1.373-7.386h-7.32A1.307,1.307,0,0,1-10-8.693,1.307,1.307,0,0,1-8.693-10h7.32A1.307,1.307,0,0,1-.066-8.693,1.307,1.307,0,0,1-1.373-7.386Z" transform="translate(10 27.334)" fill="#19538d"/>
            <path id="Trazado_1032921" data-name="Trazado 1032921" d="M426.591,245.861a1.3,1.3,0,0,1-.925-.384l-2.514-2.52h-3.881a1.307,1.307,0,1,1,0-2.614h4.423a1.307,1.307,0,0,1,.925.384l2.9,2.9a1.307,1.307,0,0,1-.925,2.23Z" transform="translate(-417.964 -232.415)" fill="#19538d"/>
          </g>
          <g id="Grupo_1186454" data-name="Grupo 1186454">
            <path id="Línea_3276" data-name="Línea 3276" d="M-1.373-7.386h-7.32A1.307,1.307,0,0,1-10-8.693,1.307,1.307,0,0,1-8.693-10h7.32A1.307,1.307,0,0,1-.066-8.693,1.307,1.307,0,0,1-1.373-7.386Z" transform="translate(10 10)" fill="#19538d"/>
            <path id="Línea_3277" data-name="Línea 3277" d="M-1.373-7.386h-7.32A1.307,1.307,0,0,1-10-8.693,1.307,1.307,0,0,1-8.693-10h7.32A1.307,1.307,0,0,1-.066-8.693,1.307,1.307,0,0,1-1.373-7.386Z" transform="translate(10 27.334)" fill="#19538d"/>
            <path id="Trazado_1032922" data-name="Trazado 1032922" d="M19.334,245.861a1.307,1.307,0,0,1-.925-2.23l2.9-2.9a1.307,1.307,0,0,1,.925-.384h4.423a1.307,1.307,0,0,1,0,2.614H22.773l-2.514,2.52A1.3,1.3,0,0,1,19.334,245.861Z" transform="translate(-18.027 -232.415)" fill="#19538d"/>
          </g>
        </g>
        <g id="Grupo_1186456" data-name="Grupo 1186456" transform="translate(7.547 0)">
          <path id="Trazado_1032923" data-name="Trazado 1032923" d="M77.082,0h35.2a1.307,1.307,0,0,1,.926.384L122.5,9.71a1.307,1.307,0,0,1,.381.923V65.607a1.307,1.307,0,0,1-1.307,1.307H77.082a1.307,1.307,0,0,1-1.307-1.307V1.307A1.307,1.307,0,0,1,77.082,0Zm34.657,2.614H78.389V64.3h41.88V11.173Z" transform="translate(-75.775 0)" fill="#19538d"/>
          <path id="Trazado_1032924" data-name="Trazado 1032924" d="M355.711,11.939h-9.294a1.307,1.307,0,0,1-1.307-1.307V1.307a1.307,1.307,0,0,1,2.233-.923l9.294,9.326a1.307,1.307,0,0,1-.926,2.229Zm-7.987-2.614h4.84l-4.84-4.856Z" transform="translate(-309.91 0)" fill="#19538d"/>
        </g>
      </g>
      <g id="Grupo_1186458" data-name="Grupo 1186458" transform="translate(35.128 46.311)">
        <path id="Trazado_1032925" data-name="Trazado 1032925" d="M159.206,368.513a1.306,1.306,0,0,1-.7-.206l-9.024-5.772a1.307,1.307,0,0,1,0-2.2l9.024-5.772a1.307,1.307,0,0,1,2.011,1.1v1.487h13.737a1.307,1.307,0,0,1,1.307,1.307V364.4a1.307,1.307,0,0,1-1.307,1.307H160.513v1.5a1.307,1.307,0,0,1-1.307,1.307Zm-6.6-7.079,5.292,3.384V364.4a1.307,1.307,0,0,1,1.307-1.307h13.737v-3.329H159.206a1.307,1.307,0,0,1-1.307-1.307v-.406Z" transform="translate(-148.875 -354.356)" fill="#19538d"/>
      </g>
      <path id="Línea_3278" data-name="Línea 3278" d="M6.078-7.386H-8.693A1.307,1.307,0,0,1-10-8.693,1.307,1.307,0,0,1-8.693-10H6.078A1.307,1.307,0,0,1,7.385-8.693,1.307,1.307,0,0,1,6.078-7.386Z" transform="translate(49.777 19.326)" fill="#19538d"/>
      <path id="Línea_3279" data-name="Línea 3279" d="M20.605-7.386h-29.3A1.307,1.307,0,0,1-10-8.693,1.307,1.307,0,0,1-8.693-10h29.3a1.307,1.307,0,0,1,1.307,1.307A1.307,1.307,0,0,1,20.605-7.386Z" transform="translate(43.172 50.811)" fill="#19538d"/>
    </g>
  </g>
</svg>
