<svg xmlns="http://www.w3.org/2000/svg" xmlns:xlink="http://www.w3.org/1999/xlink" width="130" height="130" viewBox="0 0 130 130">
  <defs>
    <clipPath id="clip-path">
      <rect id="Rectángulo_455533" data-name="Rectángulo 455533" width="130" height="124.675" fill="#19538d"/>
    </clipPath>
  </defs>
  <g id="Grupo_1186646" data-name="Grupo 1186646" transform="translate(-186 -4292.487)">
    <g id="Grupo_1186591" data-name="Grupo 1186591" transform="translate(186.295 4292.26)">
      <ellipse id="Elipse_13674" data-name="Elipse 13674" cx="55.433" cy="55.433" rx="55.433" ry="55.433" transform="translate(9.272 9.794)" fill="#fff"/>
      <g id="Grupo_1179062" data-name="Grupo 1179062" transform="translate(-0.295 0.228)">
        <rect id="Rectángulo_455531" data-name="Rectángulo 455531" width="130" height="130" transform="translate(0 0)" fill="none"/>
        <g id="Grupo_1179061" data-name="Grupo 1179061" transform="translate(0 3.059)">
          <path id="Trazado_998445" data-name="Trazado 998445" d="M121.348,97.577H96.727l3.337-6.223h24.621Z" transform="translate(1.399 1.395)" fill="#62249e"/>
          <path id="Trazado_998446" data-name="Trazado 998446" d="M2.024,86.893,0,91.012H27.145l2.024-4.119Z" transform="translate(0 1.333)" fill="#19538d"/>
          <path id="Trazado_998447" data-name="Trazado 998447" d="M124.8,32.583h-26l2.038-4.616h26Z" transform="translate(1.439 0.429)" fill="#19538d"/>
          <path id="Trazado_998448" data-name="Trazado 998448" d="M37.632,12.837H3.483L5.521,8.221H39.671Z" transform="translate(0.067 0.158)" fill="#19538d"/>
          <g id="Grupo_1179060" data-name="Grupo 1179060" transform="translate(0)">
            <g id="Grupo_1179059" data-name="Grupo 1179059" clip-path="url(#clip-path)">
              <path id="Trazado_998449" data-name="Trazado 998449" d="M64.959,116.745A55.15,55.15,0,0,1,11.184,49.237H3.839a62.343,62.343,0,0,0,109.679,51.42H103.9a55,55,0,0,1-38.942,16.088" transform="translate(0.041 0.762)" fill="#19538d"/>
              <path id="Trazado_998450" data-name="Trazado 998450" d="M110.835,88.975h8.158c.655-1.3,1.25-2.641,1.815-3.995h-7.844c-.659,1.363-1.365,2.7-2.13,3.995" transform="translate(1.732 1.314)" fill="#19538d"/>
              <path id="Trazado_998451" data-name="Trazado 998451" d="M127.263,62.338A62.358,62.358,0,0,0,5.373,43.8h7.568A55.178,55.178,0,1,1,116.109,82.912h7.644a62.054,62.054,0,0,0,3.51-20.574" transform="translate(0.084)" fill="#19538d"/>
              <path id="Trazado_998452" data-name="Trazado 998452" d="M108.562,81.649v3.383H113q.8-1.662,1.5-3.383Z" transform="translate(1.696 1.263)" fill="#19538d"/>
              <path id="Trazado_998453" data-name="Trazado 998453" d="M128.115,81.649h-6.163q-.6,1.715-1.3,3.383h7.46Z" transform="translate(1.885 1.263)" fill="#19538d"/>
            </g>
          </g>
          <path id="Trazado_998444" data-name="Trazado 998444" d="M3.057,37.025,0,43.248H18.482l3.058-6.223Z" transform="translate(0 0.565)" fill="#62249e"/>
        </g>
      </g>
      <g id="Grupo_1177669" data-name="Grupo 1177669" transform="translate(29.914 29.57)">
        <g id="Grupo_1099618" data-name="Grupo 1099618" transform="translate(0 0)">
          <rect id="Rectángulo_401104" data-name="Rectángulo 401104" width="69.491" height="70.328" transform="translate(0)" fill="none"/>
        </g>
      </g>
    </g>
    <g id="configuracion-de-la-computadora" transform="translate(218.944 4325.578)">
      <path id="Trazado_1031487" data-name="Trazado 1031487" d="M47.366,65.808H19.105a4.228,4.228,0,0,1,1.347-3.077A4.722,4.722,0,0,1,23.7,61.459h1.749l.777-4.078H39.882l.776,4.078h2.1a4.479,4.479,0,0,1,4.6,4.35Z" transform="translate(-0.983 -3.599)" fill="#19538d"/>
      <g id="Grupo_1185733" data-name="Grupo 1185733" transform="translate(3.875 10.899)">
        <path id="Trazado_1031488" data-name="Trazado 1031488" d="M56.495,11.54h-8.98l-1.3,1.609A16.418,16.418,0,0,1,47,14.721c.084.187.159.374.243.561h9.252V43.823H7.617V15.282h9.224c.065-.187.14-.365.215-.543a10.591,10.591,0,0,1,.8-1.637L16.6,11.54H7.617a3.741,3.741,0,0,0-3.742,3.742V49.277a3.741,3.741,0,0,0,3.742,3.742H56.495a3.741,3.741,0,0,0,3.742-3.742V15.282a3.741,3.741,0,0,0-3.742-3.742ZM34.858,49.118H29.245a.7.7,0,1,1,0-1.4h5.613a.7.7,0,1,1,0,1.4Z" transform="translate(-3.875 -11.54)" fill="#19538d"/>
      </g>
      <path id="Trazado_1031489" data-name="Trazado 1031489" d="M50.349,17.616l-2.217-.234a1.3,1.3,0,0,1-1.1-.917,13.7,13.7,0,0,0-.664-1.824,14.972,14.972,0,0,0-.758-1.5,1.286,1.286,0,0,1,.112-1.459l.636-.786.8-.992a1.3,1.3,0,0,0-.094-1.731L44.952,6.063a1.294,1.294,0,0,0-1.74-.094L41.36,7.457a1.291,1.291,0,0,1-1.441.131,14.426,14.426,0,0,0-3.237-1.319,1.291,1.291,0,0,1-.935-1.113L35.494,2.77A1.3,1.3,0,0,0,34.2,1.61H31.21a1.306,1.306,0,0,0-1.3,1.16l-.253,2.385a1.294,1.294,0,0,1-.935,1.113,14.428,14.428,0,0,0-3.237,1.319,1.3,1.3,0,0,1-1.44-.121l-1.852-1.5a1.293,1.293,0,0,0-1.74.094L18.338,8.177a1.3,1.3,0,0,0-.093,1.731l.8.992.6.739a1.268,1.268,0,0,1,.1,1.478,9.641,9.641,0,0,0-.758,1.525,16.5,16.5,0,0,0-.627,1.805,1.279,1.279,0,0,1-1.1.935l-2.217.234a1.3,1.3,0,0,0-1.16,1.291V21.9a1.3,1.3,0,0,0,1.16,1.291l2.086.216a1.289,1.289,0,0,1,1.113.954,15.2,15.2,0,0,0,1.412,3.518,1.274,1.274,0,0,1-.131,1.441L18.254,30.9a1.292,1.292,0,0,0,.084,1.731l2.114,2.114a1.3,1.3,0,0,0,1.74.084L23.7,33.612a1.285,1.285,0,0,1,1.459-.112,14.567,14.567,0,0,0,3.62,1.525,1.28,1.28,0,0,1,.935,1.113l.206,1.89a1.3,1.3,0,0,0,1.291,1.16H34.2a1.3,1.3,0,0,0,1.291-1.16l.2-1.9a1.3,1.3,0,0,1,.935-1.113,14.058,14.058,0,0,0,3.62-1.515,1.286,1.286,0,0,1,1.459.112l1.506,1.216a1.3,1.3,0,0,0,1.74-.084l2.1-2.114A1.282,1.282,0,0,0,47.15,30.9l-1.282-1.581a1.308,1.308,0,0,1-.131-1.441A14.426,14.426,0,0,0,47.15,24.36a1.311,1.311,0,0,1,1.123-.954l2.077-.216A1.305,1.305,0,0,0,51.519,21.9V18.907a1.306,1.306,0,0,0-1.169-1.291ZM32.707,29.066A8.667,8.667,0,1,1,41.388,20.4,8.671,8.671,0,0,1,32.707,29.066Z" transform="translate(-0.646 0)" fill="#19538d"/>
    </g>
  </g>
</svg>
