<svg xmlns="http://www.w3.org/2000/svg" width="98" height="98" viewBox="0 0 98 98">
  <g id="Grupo_1186580" data-name="Grupo 1186580" transform="translate(-593 -3348)">
    <g id="Grupo_1186573" data-name="Grupo 1186573" transform="translate(303.391 -8263.898)">
      <g id="Grupo_1177473" data-name="Grupo 1177473" transform="translate(289.609 11611.898)">
        <ellipse id="Elipse_13609" data-name="Elipse 13609" cx="49" cy="49" rx="49" ry="49" transform="translate(0)" fill="#19538d"/>
      </g>
    </g>
    <path id="Trazado_1032954" data-name="Trazado 1032954" d="M33.725-37.63v9.688q-6.448-3.875-11.292-3.875a9.774,9.774,0,0,0-7.75,3.33q-2.906,3.33-2.906,8.961A11.808,11.808,0,0,0,14.834-11a10.788,10.788,0,0,0,8.174,3.194q4.48,0,10.717-3.6v9.627A38.35,38.35,0,0,1,22.069.545,18.1,18.1,0,0,1,8.446-5.343a20.067,20.067,0,0,1-5.6-14.365A20.365,20.365,0,0,1,8.552-34.315a18.467,18.467,0,0,1,13.88-5.979A28.032,28.032,0,0,1,33.725-37.63Z" transform="translate(622.154 3417.293)" fill="#fff"/>
  </g>
</svg>
