<svg xmlns="http://www.w3.org/2000/svg" xmlns:xlink="http://www.w3.org/1999/xlink" width="110" height="109" viewBox="0 0 110 109">
  <defs>
    <clipPath id="clip-path">
      <path id="path5241" d="M0-682.665H58.584v58.584H0Z" transform="translate(0 682.665)" fill="#12263f"/>
    </clipPath>
  </defs>
  <g id="Grupo_1186641" data-name="Grupo 1186641" transform="translate(-589 -5302)">
    <ellipse id="Elipse_13688" data-name="Elipse 13688" cx="55" cy="54.5" rx="55" ry="54.5" transform="translate(589 5302)" fill="#fff"/>
    <g id="g5235" transform="translate(615 6008.7)">
      <g id="g5237" transform="translate(0 -682.665)">
        <g id="g5239" transform="translate(0 0)" clip-path="url(#clip-path)">
          <g id="g5245" transform="translate(0 5.281)">
            <path id="path5247" d="M-241.96,32.414h-37.858a3.785,3.785,0,0,1-3.782-3.781V-6.178A3.874,3.874,0,0,1-279.775-10h20.514a.858.858,0,0,1,.858.858.858.858,0,0,1-.858.858h-20.514a2.135,2.135,0,0,0-2.108,2.105V28.633a2.067,2.067,0,0,0,2.065,2.064h37.858a.858.858,0,0,1,.858.858A.858.858,0,0,1-241.96,32.414Z" transform="translate(283.599 10)" fill="#12263f"/>
          </g>
          <g id="g5249" transform="translate(44.52 5.281)">
            <path id="path5251" d="M-16.812,32.414h-9.423a.858.858,0,0,1-.858-.858.858.858,0,0,1,.858-.858h9.423a1.847,1.847,0,0,0,2.066-2.065V-6.178a2.135,2.135,0,0,0-2.108-2.105h-7.915a.858.858,0,0,1-.858-.858A.858.858,0,0,1-24.768-10h7.915A3.874,3.874,0,0,1-13.03-6.178V28.632A3.544,3.544,0,0,1-16.812,32.414Z" transform="translate(27.093 10)" fill="#12263f"/>
          </g>
          <g id="g5253" transform="translate(33.417 5.281)">
            <path id="path5255" d="M-103.2-8.284h-8.83a.858.858,0,0,1-.858-.858.858.858,0,0,1,.858-.858h8.83a.858.858,0,0,1,.858.858A.858.858,0,0,1-103.2-8.284Z" transform="translate(112.893 10)" fill="#12263f"/>
          </g>
          <g id="g5257" transform="translate(3.554 8.788)">
            <path id="path5259" d="M-102.816-328.247h-8.793a.858.858,0,0,1-.858-.858v-30.036a.858.858,0,0,1,.858-.858h19.535a.858.858,0,0,1,.858.858.858.858,0,0,1-.858.858h-18.677v28.319h7.935a.858.858,0,0,1,.858.858A.858.858,0,0,1-102.816-328.247Z" transform="translate(112.468 359.999)" fill="#12263f"/>
          </g>
          <g id="g5261" transform="translate(16.087 8.788)">
            <path id="path5263" d="M-178.074,21.752H-215.3a.858.858,0,0,1-.858-.858.858.858,0,0,1,.858-.858h36.369V-8.284h-18.677a.858.858,0,0,1-.858-.858.858.858,0,0,1,.858-.858h19.535a.858.858,0,0,1,.858.858V20.894A.858.858,0,0,1-178.074,21.752Z" transform="translate(216.16 10)" fill="#12263f"/>
          </g>
          <g id="g5265" transform="translate(26.671 8.788)">
            <path id="path5267" d="M-46.709-8.284h-3.526a.858.858,0,0,1-.858-.858A.858.858,0,0,1-50.235-10h3.526a.858.858,0,0,1,.858.858A.858.858,0,0,1-46.709-8.284Z" transform="translate(51.093 10)" fill="#12263f"/>
          </g>
          <path id="path5269" d="M229.268-77.988H207.943a.858.858,0,0,1-.858-.858V-82.41a.858.858,0,0,1,.858-.858h21.325a.858.858,0,0,1,.858.858v3.564A.858.858,0,0,1,229.268-77.988ZM208.8-79.7H228.41v-1.847H208.8Z" transform="translate(-189.314 134.706)" fill="#12263f"/>
          <g id="g5271" transform="translate(23.102 45.978)">
            <path id="path5273" d="M-122.729-66.449h-10.663a.858.858,0,0,1-.694-.354.858.858,0,0,1-.122-.77l1.777-5.46a.858.858,0,0,1,.816-.593h7.108a.858.858,0,0,1,.816.593l1.777,5.46a.858.858,0,0,1-.122.77A.858.858,0,0,1-122.729-66.449Zm-9.481-1.716h8.3l-1.218-3.744h-5.862Z" transform="translate(134.25 73.625)" fill="#12263f"/>
          </g>
          <g id="g5275" transform="translate(28.434 42.56)">
            <path id="path5277" d="M-9.142-18.284h0A.858.858,0,0,1-10-19.142h0A.858.858,0,0,1-9.142-20a.858.858,0,0,1,.858.858h0a.858.858,0,0,1-.858.858" transform="translate(10 20)" fill="#12263f"/>
          </g>
          <g id="g5279" transform="translate(31.988 42.56)">
            <path id="path5281" d="M-9.142-18.284h0A.858.858,0,0,1-10-19.142h0A.858.858,0,0,1-9.142-20a.858.858,0,0,1,.858.858h0a.858.858,0,0,1-.858.858" transform="translate(10 20)" fill="#12263f"/>
          </g>
          <g id="g5283" transform="translate(24.88 42.56)">
            <path id="path5285" d="M-9.142-18.284h0A.858.858,0,0,1-10-19.142h0A.858.858,0,0,1-9.142-20a.858.858,0,0,1,.858.858h0a.858.858,0,0,1-.858.858" transform="translate(10 20)" fill="#12263f"/>
          </g>
          <path id="path5287" d="M255-522.356H239.006a.858.858,0,0,1-.858-.858v-12.44a.858.858,0,0,1,.858-.858H255a.858.858,0,0,1,.858.858v12.44A.858.858,0,0,1,255-522.356Zm-15.136-1.716h14.277V-534.8H239.864Z" transform="translate(-217.71 549.054)" fill="#12263f"/>
          <g id="g5289" transform="translate(23.089 1.866)">
            <path id="path5291" d="M-123.02-122.019H-126.6a.858.858,0,0,1-.858-.858v-5.332a.912.912,0,0,0-.919-.905h0a.933.933,0,0,0-.892.905v5.332a.858.858,0,0,1-.858.858h-3.581a.858.858,0,0,1-.858-.858v-5.332a6.366,6.366,0,0,1,6.2-6.2,6.21,6.21,0,0,1,6.2,6.2v5.332A.858.858,0,0,1-123.02-122.019Zm-2.723-1.716h1.865v-4.473a4.492,4.492,0,0,0-4.486-4.487,4.6,4.6,0,0,0-4.487,4.487v4.473h1.865v-4.473a2.647,2.647,0,0,1,2.6-2.622,2.655,2.655,0,0,1,2.644,2.622Z" transform="translate(134.568 134.412)" fill="#12263f"/>
          </g>
          <g id="g5293" transform="translate(26.656 16.095)">
            <path id="path5295" d="M-48.8-30.716A2.639,2.639,0,0,1-46.16-28.08,2.639,2.639,0,0,1-48.8-25.444a2.639,2.639,0,0,1-2.636-2.636A2.639,2.639,0,0,1-48.8-30.716Zm0,3.556a.921.921,0,0,0,.92-.92A.921.921,0,0,0-48.8-29a.921.921,0,0,0-.92.92A.921.921,0,0,0-48.8-27.16Z" transform="translate(51.432 30.716)" fill="#12263f"/>
          </g>
          <g id="g5297" transform="translate(28.434 19.651)">
            <path id="path5299" d="M-9.142-27.215A.858.858,0,0,1-10-28.073V-29.85a.858.858,0,0,1,.858-.858.858.858,0,0,1,.858.858v1.777A.858.858,0,0,1-9.142-27.215Z" transform="translate(10 30.708)" fill="#12263f"/>
          </g>
          <g id="g5301" transform="translate(21.325 31.918)">
            <path id="path5303" d="M-9.142-18.284h0A.858.858,0,0,1-10-19.142.858.858,0,0,1-9.142-20a.858.858,0,0,1,.858.858.858.858,0,0,1-.858.858" transform="translate(10 20)" fill="#12263f"/>
          </g>
          <g id="g5305" transform="translate(17.771 31.918)">
            <path id="path5307" d="M-9.142-18.284h0A.858.858,0,0,1-10-19.142.858.858,0,0,1-9.142-20a.858.858,0,0,1,.858.858.858.858,0,0,1-.858.858" transform="translate(10 20)" fill="#12263f"/>
          </g>
          <g id="g5309" transform="translate(28.434 31.918)">
            <path id="path5311" d="M-9.142-18.284h0A.858.858,0,0,1-10-19.142.858.858,0,0,1-9.142-20a.858.858,0,0,1,.858.858.858.858,0,0,1-.858.858" transform="translate(10 20)" fill="#12263f"/>
          </g>
          <g id="g5313" transform="translate(35.542 31.918)">
            <path id="path5315" d="M-9.142-18.284h0A.858.858,0,0,1-10-19.142.858.858,0,0,1-9.142-20a.858.858,0,0,1,.858.858.858.858,0,0,1-.858.858" transform="translate(10 20)" fill="#12263f"/>
          </g>
          <g id="g5317" transform="translate(39.096 31.918)">
            <path id="path5319" d="M-9.142-18.284h0A.858.858,0,0,1-10-19.142.858.858,0,0,1-9.142-20a.858.858,0,0,1,.858.858.858.858,0,0,1-.858.858" transform="translate(10 20)" fill="#12263f"/>
          </g>
          <g id="g5321" transform="translate(24.88 31.918)">
            <path id="path5323" d="M-9.142-18.284h0A.858.858,0,0,1-10-19.142.858.858,0,0,1-9.142-20a.858.858,0,0,1,.858.858.858.858,0,0,1-.858.858" transform="translate(10 20)" fill="#12263f"/>
          </g>
          <g id="g5325" transform="translate(31.988 31.918)">
            <path id="path5327" d="M-9.142-18.284h0A.858.858,0,0,1-10-19.142.858.858,0,0,1-9.142-20a.858.858,0,0,1,.858.858.858.858,0,0,1-.858.858" transform="translate(10 20)" fill="#12263f"/>
          </g>
          <path id="path5329" d="M194.959-343.322H166.526a.858.858,0,0,1-.858-.858v-7.108a.858.858,0,0,1,.858-.858h28.434a.858.858,0,0,1,.607.251.858.858,0,0,1,.251.607v7.108A.858.858,0,0,1,194.959-343.322Zm-27.575-1.716H194.1v-5.392H167.384Z" transform="translate(-151.451 380.511)" fill="#12263f"/>
        </g>
      </g>
    </g>
  </g>
</svg>
