<svg xmlns="http://www.w3.org/2000/svg" xmlns:xlink="http://www.w3.org/1999/xlink" width="130" height="130" viewBox="0 0 130 130">
  <defs>
    <clipPath id="clip-path">
      <rect id="Rectángulo_455533" data-name="Rectángulo 455533" width="130" height="124.675" fill="#19538d"/>
    </clipPath>
  </defs>
  <g id="Grupo_1186593" data-name="Grupo 1186593" transform="translate(0.295 -0.228)">
    <ellipse id="Elipse_13674" data-name="Elipse 13674" cx="55.433" cy="55.433" rx="55.433" ry="55.433" transform="translate(9.272 9.794)" fill="#fff"/>
    <g id="Grupo_1179062" data-name="Grupo 1179062" transform="translate(-0.295 0.228)">
      <rect id="Rectángulo_455531" data-name="Rectángulo 455531" width="130" height="130" transform="translate(0 0)" fill="none"/>
      <g id="Grupo_1179061" data-name="Grupo 1179061" transform="translate(0 3.059)">
        <path id="Trazado_998445" data-name="Trazado 998445" d="M121.348,97.577H96.727l3.337-6.223h24.621Z" transform="translate(1.399 1.395)" fill="#62249e"/>
        <path id="Trazado_998446" data-name="Trazado 998446" d="M2.024,86.893,0,91.012H27.145l2.024-4.119Z" transform="translate(0 1.333)" fill="#19538d"/>
        <path id="Trazado_998447" data-name="Trazado 998447" d="M124.8,32.583h-26l2.038-4.616h26Z" transform="translate(1.439 0.429)" fill="#19538d"/>
        <path id="Trazado_998448" data-name="Trazado 998448" d="M37.632,12.837H3.483L5.521,8.221H39.671Z" transform="translate(0.067 0.158)" fill="#19538d"/>
        <g id="Grupo_1179060" data-name="Grupo 1179060" transform="translate(0)">
          <g id="Grupo_1179059" data-name="Grupo 1179059" clip-path="url(#clip-path)">
            <path id="Trazado_998449" data-name="Trazado 998449" d="M64.959,116.745A55.15,55.15,0,0,1,11.184,49.237H3.839a62.343,62.343,0,0,0,109.679,51.42H103.9a55,55,0,0,1-38.942,16.088" transform="translate(0.041 0.762)" fill="#19538d"/>
            <path id="Trazado_998450" data-name="Trazado 998450" d="M110.835,88.975h8.158c.655-1.3,1.25-2.641,1.815-3.995h-7.844c-.659,1.363-1.365,2.7-2.13,3.995" transform="translate(1.732 1.314)" fill="#19538d"/>
            <path id="Trazado_998451" data-name="Trazado 998451" d="M127.263,62.338A62.358,62.358,0,0,0,5.373,43.8h7.568A55.178,55.178,0,1,1,116.109,82.912h7.644a62.054,62.054,0,0,0,3.51-20.574" transform="translate(0.084)" fill="#19538d"/>
            <path id="Trazado_998452" data-name="Trazado 998452" d="M108.562,81.649v3.383H113q.8-1.662,1.5-3.383Z" transform="translate(1.696 1.263)" fill="#19538d"/>
            <path id="Trazado_998453" data-name="Trazado 998453" d="M128.115,81.649h-6.163q-.6,1.715-1.3,3.383h7.46Z" transform="translate(1.885 1.263)" fill="#19538d"/>
          </g>
        </g>
        <path id="Trazado_998444" data-name="Trazado 998444" d="M3.057,37.025,0,43.248H18.482l3.058-6.223Z" transform="translate(0 0.565)" fill="#62249e"/>
      </g>
    </g>
    <g id="Grupo_1177669" data-name="Grupo 1177669" transform="translate(29.914 29.57)">
      <g id="Grupo_1099618" data-name="Grupo 1099618" transform="translate(0 0)">
        <rect id="Rectángulo_401104" data-name="Rectángulo 401104" width="69.491" height="70.328" transform="translate(0)" fill="none"/>
      </g>
      <g id="analisis-de-marketing" transform="translate(5.021 7.754)">
        <path id="Trazado_1031498" data-name="Trazado 1031498" d="M42.348,60.659H40.141V55.175H24.5v5.484H22.292a2.665,2.665,0,0,0-2.667,2.667v1.387h25.39V63.326a2.665,2.665,0,0,0-2.667-2.667Z" transform="translate(-2.04 -6.211)" fill="#19538d"/>
        <path id="Trazado_1031499" data-name="Trazado 1031499" d="M54.862,2.025H5.7A3.537,3.537,0,0,0,2.165,5.557V44.107A3.537,3.537,0,0,0,5.7,47.639H54.862A3.537,3.537,0,0,0,58.4,44.107V5.557a3.537,3.537,0,0,0-3.533-3.533ZM30.285,44.637a1.939,1.939,0,1,1,1.934-1.943A1.943,1.943,0,0,1,30.285,44.637Zm23.96-6.88H6.316V6.529H54.244Z" transform="translate(0 0)" fill="#19538d"/>
        <path id="Trazado_1031500" data-name="Trazado 1031500" d="M31.732,32.334H28.684a.442.442,0,0,0-.442.442V36.01a.441.441,0,0,0,.442.442h3.048a.441.441,0,0,0,.442-.442V32.776A.442.442,0,0,0,31.732,32.334Z" transform="translate(-3.047 -3.542)" fill="#19538d"/>
        <path id="Trazado_1031501" data-name="Trazado 1031501" d="M39.246,28.82H36.2a.441.441,0,0,0-.442.442V35.6a.441.441,0,0,0,.442.442h3.048a.441.441,0,0,0,.442-.442V29.262A.441.441,0,0,0,39.246,28.82Z" transform="translate(-3.925 -3.131)" fill="#19538d"/>
        <path id="Trazado_1031502" data-name="Trazado 1031502" d="M46.759,26.191H43.711a.442.442,0,0,0-.442.442v8.659a.441.441,0,0,0,.442.442h3.048a.441.441,0,0,0,.442-.442V26.633a.442.442,0,0,0-.442-.442Z" transform="translate(-4.803 -2.824)" fill="#19538d"/>
        <path id="Trazado_1031503" data-name="Trazado 1031503" d="M50.784,21.668V34.712a.441.441,0,0,0,.442.442h3.048a.441.441,0,0,0,.442-.442V21.668a.442.442,0,0,0-.442-.442H51.225A.442.442,0,0,0,50.784,21.668Z" transform="translate(-5.681 -2.244)" fill="#19538d"/>
        <path id="Trazado_1031504" data-name="Trazado 1031504" d="M46.331,13.177l1.648.4L29.886,23.938a.662.662,0,0,0,.658,1.15l18.2-10.427-.428,1.771a.662.662,0,1,0,1.288.311l.79-3.266a.674.674,0,0,0-.479-.8l-.009,0-3.266-.79a.662.662,0,1,0-.311,1.288Z" transform="translate(-3.2 -1.15)" fill="#19538d"/>
        <path id="Trazado_1031505" data-name="Trazado 1031505" d="M12.716,13.2H28.63a.662.662,0,1,0,0-1.325H12.716a.662.662,0,0,0,0,1.325Z" transform="translate(-1.156 -1.15)" fill="#19538d"/>
        <path id="Trazado_1031506" data-name="Trazado 1031506" d="M12.716,18.038H28.63a.662.662,0,1,0,0-1.325H12.716a.662.662,0,0,0,0,1.325Z" transform="translate(-1.156 -1.716)" fill="#19538d"/>
      </g>
    </g>
  </g>
</svg>
