<svg xmlns="http://www.w3.org/2000/svg" xmlns:xlink="http://www.w3.org/1999/xlink" width="130" height="130" viewBox="0 0 130 130">
  <defs>
    <clipPath id="clip-path">
      <rect id="Rectángulo_455533" data-name="Rectángulo 455533" width="130" height="124.675" fill="#19538d"/>
    </clipPath>
  </defs>
  <g id="Grupo_1186594" data-name="Grupo 1186594" transform="translate(0.295 -0.228)">
    <ellipse id="Elipse_13674" data-name="Elipse 13674" cx="55.433" cy="55.433" rx="55.433" ry="55.433" transform="translate(9.272 9.794)" fill="#fff"/>
    <g id="Grupo_1179062" data-name="Grupo 1179062" transform="translate(-0.295 0.228)">
      <rect id="Rectángulo_455531" data-name="Rectángulo 455531" width="130" height="130" transform="translate(0 0)" fill="none"/>
      <g id="Grupo_1179061" data-name="Grupo 1179061" transform="translate(0 3.059)">
        <path id="Trazado_998445" data-name="Trazado 998445" d="M121.348,97.577H96.727l3.337-6.223h24.621Z" transform="translate(1.399 1.395)" fill="#62249e"/>
        <path id="Trazado_998446" data-name="Trazado 998446" d="M2.024,86.893,0,91.012H27.145l2.024-4.119Z" transform="translate(0 1.333)" fill="#19538d"/>
        <path id="Trazado_998447" data-name="Trazado 998447" d="M124.8,32.583h-26l2.038-4.616h26Z" transform="translate(1.439 0.429)" fill="#19538d"/>
        <path id="Trazado_998448" data-name="Trazado 998448" d="M37.632,12.837H3.483L5.521,8.221H39.671Z" transform="translate(0.067 0.158)" fill="#19538d"/>
        <g id="Grupo_1179060" data-name="Grupo 1179060" transform="translate(0)">
          <g id="Grupo_1179059" data-name="Grupo 1179059" clip-path="url(#clip-path)">
            <path id="Trazado_998449" data-name="Trazado 998449" d="M64.959,116.745A55.15,55.15,0,0,1,11.184,49.237H3.839a62.343,62.343,0,0,0,109.679,51.42H103.9a55,55,0,0,1-38.942,16.088" transform="translate(0.041 0.762)" fill="#19538d"/>
            <path id="Trazado_998450" data-name="Trazado 998450" d="M110.835,88.975h8.158c.655-1.3,1.25-2.641,1.815-3.995h-7.844c-.659,1.363-1.365,2.7-2.13,3.995" transform="translate(1.732 1.314)" fill="#19538d"/>
            <path id="Trazado_998451" data-name="Trazado 998451" d="M127.263,62.338A62.358,62.358,0,0,0,5.373,43.8h7.568A55.178,55.178,0,1,1,116.109,82.912h7.644a62.054,62.054,0,0,0,3.51-20.574" transform="translate(0.084)" fill="#19538d"/>
            <path id="Trazado_998452" data-name="Trazado 998452" d="M108.562,81.649v3.383H113q.8-1.662,1.5-3.383Z" transform="translate(1.696 1.263)" fill="#19538d"/>
            <path id="Trazado_998453" data-name="Trazado 998453" d="M128.115,81.649h-6.163q-.6,1.715-1.3,3.383h7.46Z" transform="translate(1.885 1.263)" fill="#19538d"/>
          </g>
        </g>
        <path id="Trazado_998444" data-name="Trazado 998444" d="M3.057,37.025,0,43.248H18.482l3.058-6.223Z" transform="translate(0 0.565)" fill="#62249e"/>
      </g>
    </g>
    <g id="Grupo_1177669" data-name="Grupo 1177669" transform="translate(29.914 29.57)">
      <g id="Grupo_1099618" data-name="Grupo 1099618" transform="translate(0 0)">
        <rect id="Rectángulo_401104" data-name="Rectángulo 401104" width="69.491" height="70.328" transform="translate(0)" fill="none"/>
      </g>
      <g id="conocimiento" transform="translate(1.046 1.425)">
        <path id="Trazado_1031507" data-name="Trazado 1031507" d="M42.435,57.053H39.546V51.51H23.088v5.543H20.2a2.808,2.808,0,0,0-2.814,2.8V61.3H45.249V59.856a2.809,2.809,0,0,0-2.814-2.8Z" transform="translate(1.026 3.238)" fill="#19538d"/>
        <path id="Trazado_1031508" data-name="Trazado 1031508" d="M43.91,42.816V42.7H7.56V10.115H57.126v19.1c.15-.01.3-.01.45-.01a13.39,13.39,0,0,1,4.366.717V10.65a5.352,5.352,0,0,0-5.35-5.35H8.1a5.352,5.352,0,0,0-5.35,5.35V47.792a5.353,5.353,0,0,0,5.35,5.35H48.308c-.417-.578-.91-1.2-1.455-1.894a13.5,13.5,0,0,1-2.943-8.432ZM32.343,50a2.033,2.033,0,1,1,2.033-2.033A2.039,2.039,0,0,1,32.343,50Z" transform="translate(0 0)" fill="#19538d"/>
        <path id="Trazado_1031509" data-name="Trazado 1031509" d="M50.325,14.91H35.865a.8.8,0,1,0,0,1.605H50.325a.8.8,0,0,0,0-1.605Z" transform="translate(2.264 0.673)" fill="#19538d"/>
        <path id="Trazado_1031510" data-name="Trazado 1031510" d="M51.127,20.326a.8.8,0,0,0-.8-.8H35.865a.8.8,0,1,0,0,1.605H50.325A.8.8,0,0,0,51.127,20.326Z" transform="translate(2.264 0.997)" fill="#19538d"/>
        <path id="Trazado_1031511" data-name="Trazado 1031511" d="M63.3,56.65a1.987,1.987,0,0,1-1.99,1.991h-2.4v.278a4.36,4.36,0,0,1-8.721,0v-.278H47.806a1.99,1.99,0,1,1,0-3.981l13.5.011A1.984,1.984,0,0,1,63.3,56.65Z" transform="translate(3.017 3.458)" fill="#19538d"/>
        <path id="Trazado_1031512" data-name="Trazado 1031512" d="M54.775,29.14A12,12,0,0,0,45.3,48.583c1.83,2.3,3.114,3.97,3.681,6.26l4.986.009s0,0,0-.005V44.859l-2.462-2.273a.8.8,0,0,1,1.089-1.18l2.176,2.01,2.175-2.01a.8.8,0,0,1,1.089,1.18l-2.461,2.273v9.988s0,0,0,.005l4.989-.009c.567-2.29,1.851-3.959,3.681-6.26a12,12,0,0,0-9.47-19.443Z" transform="translate(2.8 1.67)" fill="#19538d"/>
        <path id="Trazado_1031513" data-name="Trazado 1031513" d="M32.472,27.23a.777.777,0,0,0-.777.777v6.429a.777.777,0,0,0,.777.777h4.513a.777.777,0,0,0,.777-.777V28.007a.777.777,0,0,0-.777-.777Z" transform="translate(2.028 1.536)" fill="#19538d"/>
        <path id="Trazado_1031514" data-name="Trazado 1031514" d="M22.432,22.53a.777.777,0,0,0-.777.777V34.765a.777.777,0,0,0,.777.777h4.513a.777.777,0,0,0,.777-.777V23.307a.777.777,0,0,0-.777-.777Z" transform="translate(1.325 1.207)" fill="#19538d"/>
        <path id="Trazado_1031515" data-name="Trazado 1031515" d="M13.132,17.27a.777.777,0,0,0-.777.777V35.133a.777.777,0,0,0,.777.777h3.711a.777.777,0,0,0,.777-.777V18.047a.777.777,0,0,0-.777-.777Z" transform="translate(0.673 0.839)" fill="#19538d"/>
      </g>
    </g>
  </g>
</svg>
