<svg xmlns="http://www.w3.org/2000/svg" xmlns:xlink="http://www.w3.org/1999/xlink" width="129" height="127" viewBox="0 0 129 127">
  <defs>
    <clipPath id="clip-path">
      <rect id="Rectángulo_454807" data-name="Rectángulo 454807" width="129" height="127" transform="translate(399.059 5904)" fill="#9ecfff"/>
    </clipPath>
  </defs>
  <g id="Grupo_1186610" data-name="Grupo 1186610" transform="translate(-409 -3276)">
    <g id="Grupo_1186609" data-name="Grupo 1186609" transform="translate(9.941 -1424)">
      <g id="Grupo_1177492" data-name="Grupo 1177492" transform="translate(0 -1204)">
        <rect id="Rectángulo_454806" data-name="Rectángulo 454806" width="129" height="127" transform="translate(399.059 5904)" fill="#9ecfff"/>
        <path id="Rectángulo_454808" data-name="Rectángulo 454808" d="M0,0H79A12,12,0,0,1,91,12V91a0,0,0,0,1,0,0H12A12,12,0,0,1,0,79V0A0,0,0,0,1,0,0Z" transform="translate(418.059 5922)" fill="#fff"/>
        <g id="Grupo_1177491" data-name="Grupo 1177491" transform="translate(13.443 -2497.801)">
          <g id="Grupo_1099776" data-name="Grupo 1099776" transform="translate(412.387 8428.781)">
            <g id="Grupo_1099618" data-name="Grupo 1099618" transform="translate(0 0)">
              <rect id="Rectángulo_401104" data-name="Rectángulo 401104" width="72.17" height="73.039" transform="translate(0)" fill="none"/>
            </g>
            <g id="bicho" transform="translate(-40.346 3.935)">
              <path id="Trazado_1032919" data-name="Trazado 1032919" d="M126.783,310.541H102.759a1.33,1.33,0,0,1-1.33-1.329v-6.561a1.33,1.33,0,0,1,1.33-1.33h25.969a1.33,1.33,0,0,1,0,2.659H104.088v3.9h22.695a1.33,1.33,0,0,1,0,2.659Z" transform="translate(-40.033 -261.26)" fill="#19538d"/>
              <g id="Grupo_1186475" data-name="Grupo 1186475" transform="translate(55.257 0)">
                <g id="Grupo_1186470" data-name="Grupo 1186470">
                  <path id="Trazado_1032920" data-name="Trazado 1032920" d="M93.473,68.072H60.158a4.907,4.907,0,0,1-4.9-4.9V4.9a4.907,4.907,0,0,1,4.9-4.9H93.473a4.907,4.907,0,0,1,4.9,4.9V36.89a1.33,1.33,0,1,1-2.659,0V4.9a2.245,2.245,0,0,0-2.242-2.242H60.158A2.245,2.245,0,0,0,57.916,4.9v58.27a2.245,2.245,0,0,0,2.242,2.242H93.473a2.245,2.245,0,0,0,2.242-2.242v-5.3a1.33,1.33,0,1,1,2.659,0v5.3A4.907,4.907,0,0,1,93.473,68.072Z" transform="translate(-55.257 0)" fill="#19538d"/>
                  <g id="Grupo_1186469" data-name="Grupo 1186469" transform="translate(18.74 58.418)">
                    <path id="Línea_3273" data-name="Línea 3273" d="M-5.694-7.341H-8.67A1.33,1.33,0,0,1-10-8.67,1.33,1.33,0,0,1-8.67-10h2.977a1.33,1.33,0,0,1,1.33,1.33A1.33,1.33,0,0,1-5.694-7.341Z" transform="translate(10 10)" fill="#19538d"/>
                  </g>
                  <path id="Línea_3274" data-name="Línea 3274" d="M16.894-7.341H-8.67A1.33,1.33,0,0,1-10-8.67,1.33,1.33,0,0,1-8.67-10H16.894a1.33,1.33,0,0,1,1.33,1.33A1.33,1.33,0,0,1,16.894-7.341Z" transform="translate(16.415 62.171)" fill="#19538d"/>
                </g>
                <g id="Grupo_1186474" data-name="Grupo 1186474" transform="translate(10.643 12.076)">
                  <path id="Elipse_13773" data-name="Elipse 13773" d="M-4.125-10A5.886,5.886,0,0,1,1.749-4.116,5.886,5.886,0,0,1-4.125,1.768,5.886,5.886,0,0,1-10-4.116,5.886,5.886,0,0,1-4.125-10Zm0,9.109A3.224,3.224,0,0,0-.91-4.116,3.224,3.224,0,0,0-4.125-7.341,3.224,3.224,0,0,0-7.341-4.116,3.224,3.224,0,0,0-4.125-.891Z" transform="translate(15.041 10)" fill="#19538d"/>
                  <g id="Grupo_1186471" data-name="Grupo 1186471" transform="translate(2.008 8.781)">
                    <path id="Línea_3275" data-name="Línea 3275" d="M-8.67-6.085a1.325,1.325,0,0,1-.939-.388,1.33,1.33,0,0,1,0-1.88L-8.359-9.61a1.33,1.33,0,0,1,1.88,0,1.33,1.33,0,0,1,0,1.88L-7.729-6.476A1.325,1.325,0,0,1-8.67-6.085Z" transform="translate(23.902 10)" fill="#19538d"/>
                    <path id="Línea_3276" data-name="Línea 3276" d="M-7.417-6.085a1.325,1.325,0,0,1-.941-.39L-9.612-7.731a1.33,1.33,0,0,1,0-1.88,1.33,1.33,0,0,1,1.88,0l1.253,1.256a1.33,1.33,0,0,1,0,1.88A1.325,1.325,0,0,1-7.417-6.085Z" transform="translate(10 10)" fill="#19538d"/>
                  </g>
                  <g id="Grupo_1186472" data-name="Grupo 1186472" transform="translate(2.008 18.89)">
                    <path id="Línea_3277" data-name="Línea 3277" d="M-8.67-6.041A1.325,1.325,0,0,1-9.61-6.43a1.33,1.33,0,0,1,0-1.88l1.3-1.3a1.33,1.33,0,0,1,1.88,0,1.33,1.33,0,0,1,0,1.88l-1.3,1.3A1.325,1.325,0,0,1-8.67-6.041Z" transform="translate(10 10.009)" fill="#19538d"/>
                    <path id="Línea_3278" data-name="Línea 3278" d="M-7.365-6.032a1.325,1.325,0,0,1-.941-.39L-9.612-7.731a1.33,1.33,0,0,1,0-1.88,1.33,1.33,0,0,1,1.88,0L-6.423-8.3a1.33,1.33,0,0,1,0,1.88A1.325,1.325,0,0,1-7.365-6.032Z" transform="translate(23.849 10)" fill="#19538d"/>
                  </g>
                  <g id="Grupo_1186473" data-name="Grupo 1186473" transform="translate(0 14.499)">
                    <path id="Línea_3279" data-name="Línea 3279" d="M-6.736-7.341H-8.67A1.33,1.33,0,0,1-10-8.67,1.33,1.33,0,0,1-8.67-10h1.934a1.33,1.33,0,0,1,1.33,1.33A1.33,1.33,0,0,1-6.736-7.341Z" transform="translate(27.237 10)" fill="#19538d"/>
                    <path id="Línea_3280" data-name="Línea 3280" d="M-6.754-7.341H-8.67A1.33,1.33,0,0,1-10-8.67,1.33,1.33,0,0,1-8.67-10h1.916a1.33,1.33,0,0,1,1.33,1.33A1.33,1.33,0,0,1-6.754-7.341Z" transform="translate(10 10)" fill="#19538d"/>
                  </g>
                  <path id="Trazado_1032921" data-name="Trazado 1032921" d="M159.148,165.661a8.953,8.953,0,0,1-3.982-16.962,1.33,1.33,0,1,1,1.188,2.379,6.275,6.275,0,1,0,5.616.015,1.33,1.33,0,0,1,1.2-2.373,8.953,8.953,0,0,1-4.023,16.941Z" transform="translate(-148.233 -140.884)" fill="#19538d"/>
                </g>
                <path id="Línea_3281" data-name="Línea 3281" d="M14.3-7.341H-8.67A1.33,1.33,0,0,1-10-8.67,1.33,1.33,0,0,1-8.67-10H14.3a1.33,1.33,0,0,1,1.33,1.33A1.33,1.33,0,0,1,14.3-7.341Z" transform="translate(18.744 16.313)" fill="#19538d"/>
              </g>
              <g id="Grupo_1186477" data-name="Grupo 1186477" transform="translate(85.539 35.851)">
                <path id="Elipse_13774" data-name="Elipse 13774" d="M1.548-10a11.569,11.569,0,0,1,0,23.138A11.569,11.569,0,0,1,1.548-10Zm0,20.479a8.91,8.91,0,0,0,0-17.82,8.91,8.91,0,0,0,0,17.82Z" transform="translate(10 10)" fill="#19538d"/>
                <g id="Grupo_1186476" data-name="Grupo 1186476" transform="translate(10.219 4.943)">
                  <path id="Línea_3282" data-name="Línea 3282" d="M-8.67-2.6A1.33,1.33,0,0,1-10-3.929V-10.67A1.33,1.33,0,0,1-8.67-12a1.33,1.33,0,0,1,1.33,1.33v6.742A1.33,1.33,0,0,1-8.67-2.6Z" transform="translate(10 12)" fill="#19538d"/>
                  <path id="Línea_3282-2" data-name="Línea 3282" d="M-8.67-6.021A1.33,1.33,0,0,1-10-7.351v-.32A1.33,1.33,0,0,1-8.67-9a1.33,1.33,0,0,1,1.33,1.33v.32A1.33,1.33,0,0,1-8.67-6.021Z" transform="translate(10 19.275)" fill="#19538d"/>
                  <path id="Línea_3283" data-name="Línea 3283" transform="translate(1.33 10.68)" fill="#19538d"/>
                </g>
              </g>
            </g>
          </g>
        </g>
      </g>
      <path id="Trazado_998457" data-name="Trazado 998457" d="M21.193,13.724H3.483l2.43-5.5h17.71Z" transform="translate(406.088 4714.021)" fill="#fff"/>
      <path id="Trazado_998459" data-name="Trazado 998459" d="M21.193,13.724H3.483l2.43-5.5h17.71Z" transform="translate(497.088 4790.021)" fill="#fff"/>
      <path id="Trazado_998458" data-name="Trazado 998458" d="M21.193,13.724H3.483l2.43-5.5h17.71Z" transform="translate(401.088 4719.524)" fill="#9ecfff"/>
      <path id="Trazado_998461" data-name="Trazado 998461" d="M18.607,11.366H3.483L4.872,8.221H20Z" transform="translate(494.518 4795.524)" fill="#9ecfff"/>
      <path id="Trazado_998462" data-name="Trazado 998462" d="M18.607,11.366H3.483L4.872,8.221H20Z" transform="translate(497.088 4734.779)" fill="#9ecfff"/>
      <path id="Trazado_998463" data-name="Trazado 998463" d="M18.607,11.366H3.483L4.872,8.221H20Z" transform="translate(402.902 4780.779)" fill="#9ecfff"/>
    </g>
  </g>
</svg>
